<?xml version="1.0" encoding="utf-8" standalone="no"?>
<!DOCTYPE svg PUBLIC "-//W3C//DTD SVG 1.1//EN"
  "http://www.w3.org/Graphics/SVG/1.1/DTD/svg11.dtd">
<!-- Created with matplotlib (https://matplotlib.org/) -->
<svg height="879.356719pt" version="1.1" viewBox="0 0 1179.48875 879.356719" width="1179.48875pt" xmlns="http://www.w3.org/2000/svg" xmlns:xlink="http://www.w3.org/1999/xlink">
 <metadata>
  <rdf:RDF xmlns:cc="http://creativecommons.org/ns#" xmlns:dc="http://purl.org/dc/elements/1.1/" xmlns:rdf="http://www.w3.org/1999/02/22-rdf-syntax-ns#">
   <cc:Work>
    <dc:type rdf:resource="http://purl.org/dc/dcmitype/StillImage"/>
    <dc:date>2021-01-07T19:38:29.471719</dc:date>
    <dc:format>image/svg+xml</dc:format>
    <dc:creator>
     <cc:Agent>
      <dc:title>Matplotlib v3.3.3, https://matplotlib.org/</dc:title>
     </cc:Agent>
    </dc:creator>
   </cc:Work>
  </rdf:RDF>
 </metadata>
 <defs>
  <style type="text/css">*{stroke-linecap:butt;stroke-linejoin:round;}</style>
 </defs>
 <g id="figure_1">
  <g id="patch_1">
   <path d="M 0 879.356719 
L 1179.48875 879.356719 
L 1179.48875 0 
L 0 0 
z
" style="fill:#ffffff;"/>
  </g>
  <g id="axes_1">
   <g id="patch_2">
    <path d="M 56.28875 837.335625 
L 1172.28875 837.335625 
L 1172.28875 21.935625 
L 56.28875 21.935625 
z
" style="fill:#ffffff;"/>
   </g>
   <g id="matplotlib.axis_1">
    <g id="xtick_1">
     <g id="line2d_1">
      <path clip-path="url(#pe80c149ea2)" d="M 107.016023 837.335625 
L 107.016023 21.935625 
" style="fill:none;stroke:#cccccc;stroke-linecap:round;"/>
     </g>
     <g id="text_1">
      <!-- 0 -->
      <g style="fill:#262626;" transform="translate(103.957507 854.709219)scale(0.11 -0.11)">
       <defs>
        <path d="M 4.15625 35.296875 
Q 4.15625 48 6.765625 55.734375 
Q 9.375 63.484375 14.515625 67.671875 
Q 19.671875 71.875 27.484375 71.875 
Q 33.25 71.875 37.59375 69.546875 
Q 41.9375 67.234375 44.765625 62.859375 
Q 47.609375 58.5 49.21875 52.21875 
Q 50.828125 45.953125 50.828125 35.296875 
Q 50.828125 22.703125 48.234375 14.96875 
Q 45.65625 7.234375 40.5 3 
Q 35.359375 -1.21875 27.484375 -1.21875 
Q 17.140625 -1.21875 11.234375 6.203125 
Q 4.15625 15.140625 4.15625 35.296875 
z
M 13.1875 35.296875 
Q 13.1875 17.671875 17.3125 11.828125 
Q 21.4375 6 27.484375 6 
Q 33.546875 6 37.671875 11.859375 
Q 41.796875 17.71875 41.796875 35.296875 
Q 41.796875 52.984375 37.671875 58.78125 
Q 33.546875 64.59375 27.390625 64.59375 
Q 21.34375 64.59375 17.71875 59.46875 
Q 13.1875 52.9375 13.1875 35.296875 
z
" id="ArialMT-48"/>
       </defs>
       <use xlink:href="#ArialMT-48"/>
      </g>
     </g>
    </g>
    <g id="xtick_2">
     <g id="line2d_2">
      <path clip-path="url(#pe80c149ea2)" d="M 265.53875 837.335625 
L 265.53875 21.935625 
" style="fill:none;stroke:#cccccc;stroke-linecap:round;"/>
     </g>
     <g id="text_2">
      <!-- 20 -->
      <g style="fill:#262626;" transform="translate(259.421719 854.709219)scale(0.11 -0.11)">
       <defs>
        <path d="M 50.34375 8.453125 
L 50.34375 0 
L 3.03125 0 
Q 2.9375 3.171875 4.046875 6.109375 
Q 5.859375 10.9375 9.828125 15.625 
Q 13.8125 20.3125 21.34375 26.46875 
Q 33.015625 36.03125 37.109375 41.625 
Q 41.21875 47.21875 41.21875 52.203125 
Q 41.21875 57.421875 37.46875 61 
Q 33.734375 64.59375 27.734375 64.59375 
Q 21.390625 64.59375 17.578125 60.78125 
Q 13.765625 56.984375 13.71875 50.25 
L 4.6875 51.171875 
Q 5.609375 61.28125 11.65625 66.578125 
Q 17.71875 71.875 27.9375 71.875 
Q 38.234375 71.875 44.234375 66.15625 
Q 50.25 60.453125 50.25 52 
Q 50.25 47.703125 48.484375 43.546875 
Q 46.734375 39.40625 42.65625 34.8125 
Q 38.578125 30.21875 29.109375 22.21875 
Q 21.1875 15.578125 18.9375 13.203125 
Q 16.703125 10.84375 15.234375 8.453125 
z
" id="ArialMT-50"/>
       </defs>
       <use xlink:href="#ArialMT-50"/>
       <use x="55.615234" xlink:href="#ArialMT-48"/>
      </g>
     </g>
    </g>
    <g id="xtick_3">
     <g id="line2d_3">
      <path clip-path="url(#pe80c149ea2)" d="M 424.061477 837.335625 
L 424.061477 21.935625 
" style="fill:none;stroke:#cccccc;stroke-linecap:round;"/>
     </g>
     <g id="text_3">
      <!-- 40 -->
      <g style="fill:#262626;" transform="translate(417.944446 854.709219)scale(0.11 -0.11)">
       <defs>
        <path d="M 32.328125 0 
L 32.328125 17.140625 
L 1.265625 17.140625 
L 1.265625 25.203125 
L 33.9375 71.578125 
L 41.109375 71.578125 
L 41.109375 25.203125 
L 50.78125 25.203125 
L 50.78125 17.140625 
L 41.109375 17.140625 
L 41.109375 0 
z
M 32.328125 25.203125 
L 32.328125 57.46875 
L 9.90625 25.203125 
z
" id="ArialMT-52"/>
       </defs>
       <use xlink:href="#ArialMT-52"/>
       <use x="55.615234" xlink:href="#ArialMT-48"/>
      </g>
     </g>
    </g>
    <g id="xtick_4">
     <g id="line2d_4">
      <path clip-path="url(#pe80c149ea2)" d="M 582.584205 837.335625 
L 582.584205 21.935625 
" style="fill:none;stroke:#cccccc;stroke-linecap:round;"/>
     </g>
     <g id="text_4">
      <!-- 60 -->
      <g style="fill:#262626;" transform="translate(576.467173 854.709219)scale(0.11 -0.11)">
       <defs>
        <path d="M 49.75 54.046875 
L 41.015625 53.375 
Q 39.84375 58.546875 37.703125 60.890625 
Q 34.125 64.65625 28.90625 64.65625 
Q 24.703125 64.65625 21.53125 62.3125 
Q 17.390625 59.28125 14.984375 53.46875 
Q 12.59375 47.65625 12.5 36.921875 
Q 15.671875 41.75 20.265625 44.09375 
Q 24.859375 46.4375 29.890625 46.4375 
Q 38.671875 46.4375 44.84375 39.96875 
Q 51.03125 33.5 51.03125 23.25 
Q 51.03125 16.5 48.125 10.71875 
Q 45.21875 4.9375 40.140625 1.859375 
Q 35.0625 -1.21875 28.609375 -1.21875 
Q 17.625 -1.21875 10.6875 6.859375 
Q 3.765625 14.9375 3.765625 33.5 
Q 3.765625 54.25 11.421875 63.671875 
Q 18.109375 71.875 29.4375 71.875 
Q 37.890625 71.875 43.28125 67.140625 
Q 48.6875 62.40625 49.75 54.046875 
z
M 13.875 23.1875 
Q 13.875 18.65625 15.796875 14.5 
Q 17.71875 10.359375 21.1875 8.171875 
Q 24.65625 6 28.46875 6 
Q 34.03125 6 38.03125 10.484375 
Q 42.046875 14.984375 42.046875 22.703125 
Q 42.046875 30.125 38.078125 34.390625 
Q 34.125 38.671875 28.125 38.671875 
Q 22.171875 38.671875 18.015625 34.390625 
Q 13.875 30.125 13.875 23.1875 
z
" id="ArialMT-54"/>
       </defs>
       <use xlink:href="#ArialMT-54"/>
       <use x="55.615234" xlink:href="#ArialMT-48"/>
      </g>
     </g>
    </g>
    <g id="xtick_5">
     <g id="line2d_5">
      <path clip-path="url(#pe80c149ea2)" d="M 741.106932 837.335625 
L 741.106932 21.935625 
" style="fill:none;stroke:#cccccc;stroke-linecap:round;"/>
     </g>
     <g id="text_5">
      <!-- 80 -->
      <g style="fill:#262626;" transform="translate(734.989901 854.709219)scale(0.11 -0.11)">
       <defs>
        <path d="M 17.671875 38.8125 
Q 12.203125 40.828125 9.5625 44.53125 
Q 6.9375 48.25 6.9375 53.421875 
Q 6.9375 61.234375 12.546875 66.546875 
Q 18.171875 71.875 27.484375 71.875 
Q 36.859375 71.875 42.578125 66.421875 
Q 48.296875 60.984375 48.296875 53.171875 
Q 48.296875 48.1875 45.671875 44.5 
Q 43.0625 40.828125 37.75 38.8125 
Q 44.34375 36.671875 47.78125 31.875 
Q 51.21875 27.09375 51.21875 20.453125 
Q 51.21875 11.28125 44.71875 5.03125 
Q 38.234375 -1.21875 27.640625 -1.21875 
Q 17.046875 -1.21875 10.546875 5.046875 
Q 4.046875 11.328125 4.046875 20.703125 
Q 4.046875 27.6875 7.59375 32.390625 
Q 11.140625 37.109375 17.671875 38.8125 
z
M 15.921875 53.71875 
Q 15.921875 48.640625 19.1875 45.40625 
Q 22.46875 42.1875 27.6875 42.1875 
Q 32.765625 42.1875 36.015625 45.375 
Q 39.265625 48.578125 39.265625 53.21875 
Q 39.265625 58.0625 35.90625 61.359375 
Q 32.5625 64.65625 27.59375 64.65625 
Q 22.5625 64.65625 19.234375 61.421875 
Q 15.921875 58.203125 15.921875 53.71875 
z
M 13.09375 20.65625 
Q 13.09375 16.890625 14.875 13.375 
Q 16.65625 9.859375 20.171875 7.921875 
Q 23.6875 6 27.734375 6 
Q 34.03125 6 38.125 10.046875 
Q 42.234375 14.109375 42.234375 20.359375 
Q 42.234375 26.703125 38.015625 30.859375 
Q 33.796875 35.015625 27.4375 35.015625 
Q 21.234375 35.015625 17.15625 30.90625 
Q 13.09375 26.8125 13.09375 20.65625 
z
" id="ArialMT-56"/>
       </defs>
       <use xlink:href="#ArialMT-56"/>
       <use x="55.615234" xlink:href="#ArialMT-48"/>
      </g>
     </g>
    </g>
    <g id="xtick_6">
     <g id="line2d_6">
      <path clip-path="url(#pe80c149ea2)" d="M 899.629659 837.335625 
L 899.629659 21.935625 
" style="fill:none;stroke:#cccccc;stroke-linecap:round;"/>
     </g>
     <g id="text_6">
      <!-- 100 -->
      <g style="fill:#262626;" transform="translate(890.454112 854.709219)scale(0.11 -0.11)">
       <defs>
        <path d="M 37.25 0 
L 28.46875 0 
L 28.46875 56 
Q 25.296875 52.984375 20.140625 49.953125 
Q 14.984375 46.921875 10.890625 45.40625 
L 10.890625 53.90625 
Q 18.265625 57.375 23.78125 62.296875 
Q 29.296875 67.234375 31.59375 71.875 
L 37.25 71.875 
z
" id="ArialMT-49"/>
       </defs>
       <use xlink:href="#ArialMT-49"/>
       <use x="55.615234" xlink:href="#ArialMT-48"/>
       <use x="111.230469" xlink:href="#ArialMT-48"/>
      </g>
     </g>
    </g>
    <g id="xtick_7">
     <g id="line2d_7">
      <path clip-path="url(#pe80c149ea2)" d="M 1058.152386 837.335625 
L 1058.152386 21.935625 
" style="fill:none;stroke:#cccccc;stroke-linecap:round;"/>
     </g>
     <g id="text_7">
      <!-- 120 -->
      <g style="fill:#262626;" transform="translate(1048.976839 854.709219)scale(0.11 -0.11)">
       <use xlink:href="#ArialMT-49"/>
       <use x="55.615234" xlink:href="#ArialMT-50"/>
       <use x="111.230469" xlink:href="#ArialMT-48"/>
      </g>
     </g>
    </g>
    <g id="text_8">
     <!-- #Data Types Collected -->
     <g style="fill:#262626;" transform="translate(554.03 869.631094)scale(0.12 -0.12)">
      <defs>
       <path d="M 5.03125 -1.21875 
L 9.28125 19.578125 
L 1.03125 19.578125 
L 1.03125 26.859375 
L 10.75 26.859375 
L 14.359375 44.578125 
L 1.03125 44.578125 
L 1.03125 51.859375 
L 15.828125 51.859375 
L 20.0625 72.796875 
L 27.390625 72.796875 
L 23.140625 51.859375 
L 38.53125 51.859375 
L 42.78125 72.796875 
L 50.140625 72.796875 
L 45.90625 51.859375 
L 54.34375 51.859375 
L 54.34375 44.578125 
L 44.4375 44.578125 
L 40.765625 26.859375 
L 54.34375 26.859375 
L 54.34375 19.578125 
L 39.3125 19.578125 
L 35.0625 -1.21875 
L 27.734375 -1.21875 
L 31.9375 19.578125 
L 16.609375 19.578125 
L 12.359375 -1.21875 
z
M 18.0625 26.859375 
L 33.40625 26.859375 
L 37.0625 44.578125 
L 21.6875 44.578125 
z
" id="ArialMT-35"/>
       <path d="M 7.71875 0 
L 7.71875 71.578125 
L 32.375 71.578125 
Q 40.71875 71.578125 45.125 70.5625 
Q 51.265625 69.140625 55.609375 65.4375 
Q 61.28125 60.640625 64.078125 53.1875 
Q 66.890625 45.75 66.890625 36.1875 
Q 66.890625 28.03125 64.984375 21.734375 
Q 63.09375 15.4375 60.109375 11.296875 
Q 57.125 7.171875 53.578125 4.796875 
Q 50.046875 2.4375 45.046875 1.21875 
Q 40.046875 0 33.546875 0 
z
M 17.1875 8.453125 
L 32.46875 8.453125 
Q 39.546875 8.453125 43.578125 9.765625 
Q 47.609375 11.078125 50 13.484375 
Q 53.375 16.84375 55.25 22.53125 
Q 57.125 28.21875 57.125 36.328125 
Q 57.125 47.5625 53.4375 53.59375 
Q 49.75 59.625 44.484375 61.671875 
Q 40.671875 63.140625 32.234375 63.140625 
L 17.1875 63.140625 
z
" id="ArialMT-68"/>
       <path d="M 40.4375 6.390625 
Q 35.546875 2.25 31.03125 0.53125 
Q 26.515625 -1.171875 21.34375 -1.171875 
Q 12.796875 -1.171875 8.203125 3 
Q 3.609375 7.171875 3.609375 13.671875 
Q 3.609375 17.484375 5.34375 20.625 
Q 7.078125 23.78125 9.890625 25.6875 
Q 12.703125 27.59375 16.21875 28.5625 
Q 18.796875 29.25 24.03125 29.890625 
Q 34.671875 31.15625 39.703125 32.90625 
Q 39.75 34.71875 39.75 35.203125 
Q 39.75 40.578125 37.25 42.78125 
Q 33.890625 45.75 27.25 45.75 
Q 21.046875 45.75 18.09375 43.578125 
Q 15.140625 41.40625 13.71875 35.890625 
L 5.125 37.0625 
Q 6.296875 42.578125 8.984375 45.96875 
Q 11.671875 49.359375 16.75 51.1875 
Q 21.828125 53.03125 28.515625 53.03125 
Q 35.15625 53.03125 39.296875 51.46875 
Q 43.453125 49.90625 45.40625 47.53125 
Q 47.359375 45.171875 48.140625 41.546875 
Q 48.578125 39.3125 48.578125 33.453125 
L 48.578125 21.734375 
Q 48.578125 9.46875 49.140625 6.21875 
Q 49.703125 2.984375 51.375 0 
L 42.1875 0 
Q 40.828125 2.734375 40.4375 6.390625 
z
M 39.703125 26.03125 
Q 34.90625 24.078125 25.34375 22.703125 
Q 19.921875 21.921875 17.671875 20.9375 
Q 15.4375 19.96875 14.203125 18.09375 
Q 12.984375 16.21875 12.984375 13.921875 
Q 12.984375 10.40625 15.640625 8.0625 
Q 18.3125 5.71875 23.4375 5.71875 
Q 28.515625 5.71875 32.46875 7.9375 
Q 36.421875 10.15625 38.28125 14.015625 
Q 39.703125 17 39.703125 22.796875 
z
" id="ArialMT-97"/>
       <path d="M 25.78125 7.859375 
L 27.046875 0.09375 
Q 23.34375 -0.6875 20.40625 -0.6875 
Q 15.625 -0.6875 12.984375 0.828125 
Q 10.359375 2.34375 9.28125 4.8125 
Q 8.203125 7.28125 8.203125 15.1875 
L 8.203125 45.015625 
L 1.765625 45.015625 
L 1.765625 51.859375 
L 8.203125 51.859375 
L 8.203125 64.703125 
L 16.9375 69.96875 
L 16.9375 51.859375 
L 25.78125 51.859375 
L 25.78125 45.015625 
L 16.9375 45.015625 
L 16.9375 14.703125 
Q 16.9375 10.9375 17.40625 9.859375 
Q 17.875 8.796875 18.921875 8.15625 
Q 19.96875 7.515625 21.921875 7.515625 
Q 23.390625 7.515625 25.78125 7.859375 
z
" id="ArialMT-116"/>
       <path id="ArialMT-32"/>
       <path d="M 25.921875 0 
L 25.921875 63.140625 
L 2.34375 63.140625 
L 2.34375 71.578125 
L 59.078125 71.578125 
L 59.078125 63.140625 
L 35.40625 63.140625 
L 35.40625 0 
z
" id="ArialMT-84"/>
       <path d="M 6.203125 -19.96875 
L 5.21875 -11.71875 
Q 8.109375 -12.5 10.25 -12.5 
Q 13.1875 -12.5 14.9375 -11.515625 
Q 16.703125 -10.546875 17.828125 -8.796875 
Q 18.65625 -7.46875 20.515625 -2.25 
Q 20.75 -1.515625 21.296875 -0.09375 
L 1.609375 51.859375 
L 11.078125 51.859375 
L 21.875 21.828125 
Q 23.96875 16.109375 25.640625 9.8125 
Q 27.15625 15.875 29.25 21.625 
L 40.328125 51.859375 
L 49.125 51.859375 
L 29.390625 -0.875 
Q 26.21875 -9.421875 24.46875 -12.640625 
Q 22.125 -17 19.09375 -19.015625 
Q 16.0625 -21.046875 11.859375 -21.046875 
Q 9.328125 -21.046875 6.203125 -19.96875 
z
" id="ArialMT-121"/>
       <path d="M 6.59375 -19.875 
L 6.59375 51.859375 
L 14.59375 51.859375 
L 14.59375 45.125 
Q 17.4375 49.078125 21 51.046875 
Q 24.5625 53.03125 29.640625 53.03125 
Q 36.28125 53.03125 41.359375 49.609375 
Q 46.4375 46.1875 49.015625 39.953125 
Q 51.609375 33.734375 51.609375 26.3125 
Q 51.609375 18.359375 48.75 11.984375 
Q 45.90625 5.609375 40.453125 2.21875 
Q 35.015625 -1.171875 29 -1.171875 
Q 24.609375 -1.171875 21.109375 0.6875 
Q 17.625 2.546875 15.375 5.375 
L 15.375 -19.875 
z
M 14.546875 25.640625 
Q 14.546875 15.625 18.59375 10.84375 
Q 22.65625 6.0625 28.421875 6.0625 
Q 34.28125 6.0625 38.453125 11.015625 
Q 42.625 15.96875 42.625 26.375 
Q 42.625 36.28125 38.546875 41.203125 
Q 34.46875 46.140625 28.8125 46.140625 
Q 23.1875 46.140625 18.859375 40.890625 
Q 14.546875 35.640625 14.546875 25.640625 
z
" id="ArialMT-112"/>
       <path d="M 42.09375 16.703125 
L 51.171875 15.578125 
Q 49.03125 7.625 43.21875 3.21875 
Q 37.40625 -1.171875 28.375 -1.171875 
Q 17 -1.171875 10.328125 5.828125 
Q 3.65625 12.84375 3.65625 25.484375 
Q 3.65625 38.578125 10.390625 45.796875 
Q 17.140625 53.03125 27.875 53.03125 
Q 38.28125 53.03125 44.875 45.953125 
Q 51.46875 38.875 51.46875 26.03125 
Q 51.46875 25.25 51.421875 23.6875 
L 12.75 23.6875 
Q 13.234375 15.140625 17.578125 10.59375 
Q 21.921875 6.0625 28.421875 6.0625 
Q 33.25 6.0625 36.671875 8.59375 
Q 40.09375 11.140625 42.09375 16.703125 
z
M 13.234375 30.90625 
L 42.1875 30.90625 
Q 41.609375 37.453125 38.875 40.71875 
Q 34.671875 45.796875 27.984375 45.796875 
Q 21.921875 45.796875 17.796875 41.75 
Q 13.671875 37.703125 13.234375 30.90625 
z
" id="ArialMT-101"/>
       <path d="M 3.078125 15.484375 
L 11.765625 16.84375 
Q 12.5 11.625 15.84375 8.84375 
Q 19.1875 6.0625 25.203125 6.0625 
Q 31.25 6.0625 34.171875 8.515625 
Q 37.109375 10.984375 37.109375 14.3125 
Q 37.109375 17.28125 34.515625 19 
Q 32.71875 20.171875 25.53125 21.96875 
Q 15.875 24.421875 12.140625 26.203125 
Q 8.40625 27.984375 6.46875 31.125 
Q 4.546875 34.28125 4.546875 38.09375 
Q 4.546875 41.546875 6.125 44.5 
Q 7.71875 47.46875 10.453125 49.421875 
Q 12.5 50.921875 16.03125 51.96875 
Q 19.578125 53.03125 23.640625 53.03125 
Q 29.734375 53.03125 34.34375 51.265625 
Q 38.96875 49.515625 41.15625 46.5 
Q 43.359375 43.5 44.1875 38.484375 
L 35.59375 37.3125 
Q 35.015625 41.3125 32.203125 43.546875 
Q 29.390625 45.796875 24.265625 45.796875 
Q 18.21875 45.796875 15.625 43.796875 
Q 13.03125 41.796875 13.03125 39.109375 
Q 13.03125 37.40625 14.109375 36.03125 
Q 15.1875 34.625 17.484375 33.6875 
Q 18.796875 33.203125 25.25 31.453125 
Q 34.578125 28.953125 38.25 27.359375 
Q 41.9375 25.78125 44.03125 22.75 
Q 46.140625 19.734375 46.140625 15.234375 
Q 46.140625 10.84375 43.578125 6.953125 
Q 41.015625 3.078125 36.171875 0.953125 
Q 31.34375 -1.171875 25.25 -1.171875 
Q 15.140625 -1.171875 9.84375 3.03125 
Q 4.546875 7.234375 3.078125 15.484375 
z
" id="ArialMT-115"/>
       <path d="M 58.796875 25.09375 
L 68.265625 22.703125 
Q 65.28125 11.03125 57.546875 4.90625 
Q 49.8125 -1.21875 38.625 -1.21875 
Q 27.046875 -1.21875 19.796875 3.484375 
Q 12.546875 8.203125 8.765625 17.140625 
Q 4.984375 26.078125 4.984375 36.328125 
Q 4.984375 47.515625 9.25 55.828125 
Q 13.53125 64.15625 21.40625 68.46875 
Q 29.296875 72.796875 38.765625 72.796875 
Q 49.515625 72.796875 56.828125 67.328125 
Q 64.15625 61.859375 67.046875 51.953125 
L 57.71875 49.75 
Q 55.21875 57.5625 50.484375 61.125 
Q 45.75 64.703125 38.578125 64.703125 
Q 30.328125 64.703125 24.78125 60.734375 
Q 19.234375 56.78125 16.984375 50.109375 
Q 14.75 43.453125 14.75 36.375 
Q 14.75 27.25 17.40625 20.4375 
Q 20.0625 13.625 25.671875 10.25 
Q 31.296875 6.890625 37.84375 6.890625 
Q 45.796875 6.890625 51.3125 11.46875 
Q 56.84375 16.0625 58.796875 25.09375 
z
" id="ArialMT-67"/>
       <path d="M 3.328125 25.921875 
Q 3.328125 40.328125 11.328125 47.265625 
Q 18.015625 53.03125 27.640625 53.03125 
Q 38.328125 53.03125 45.109375 46.015625 
Q 51.90625 39.015625 51.90625 26.65625 
Q 51.90625 16.65625 48.90625 10.90625 
Q 45.90625 5.171875 40.15625 2 
Q 34.421875 -1.171875 27.640625 -1.171875 
Q 16.75 -1.171875 10.03125 5.8125 
Q 3.328125 12.796875 3.328125 25.921875 
z
M 12.359375 25.921875 
Q 12.359375 15.96875 16.703125 11.015625 
Q 21.046875 6.0625 27.640625 6.0625 
Q 34.1875 6.0625 38.53125 11.03125 
Q 42.875 16.015625 42.875 26.21875 
Q 42.875 35.84375 38.5 40.796875 
Q 34.125 45.75 27.640625 45.75 
Q 21.046875 45.75 16.703125 40.8125 
Q 12.359375 35.890625 12.359375 25.921875 
z
" id="ArialMT-111"/>
       <path d="M 6.390625 0 
L 6.390625 71.578125 
L 15.1875 71.578125 
L 15.1875 0 
z
" id="ArialMT-108"/>
       <path d="M 40.4375 19 
L 49.078125 17.875 
Q 47.65625 8.9375 41.8125 3.875 
Q 35.984375 -1.171875 27.484375 -1.171875 
Q 16.84375 -1.171875 10.375 5.78125 
Q 3.90625 12.75 3.90625 25.734375 
Q 3.90625 34.125 6.6875 40.421875 
Q 9.46875 46.734375 15.15625 49.875 
Q 20.84375 53.03125 27.546875 53.03125 
Q 35.984375 53.03125 41.359375 48.75 
Q 46.734375 44.484375 48.25 36.625 
L 39.703125 35.296875 
Q 38.484375 40.53125 35.375 43.15625 
Q 32.28125 45.796875 27.875 45.796875 
Q 21.234375 45.796875 17.078125 41.03125 
Q 12.9375 36.28125 12.9375 25.984375 
Q 12.9375 15.53125 16.9375 10.796875 
Q 20.953125 6.0625 27.390625 6.0625 
Q 32.5625 6.0625 36.03125 9.234375 
Q 39.5 12.40625 40.4375 19 
z
" id="ArialMT-99"/>
       <path d="M 40.234375 0 
L 40.234375 6.546875 
Q 35.296875 -1.171875 25.734375 -1.171875 
Q 19.53125 -1.171875 14.328125 2.25 
Q 9.125 5.671875 6.265625 11.796875 
Q 3.421875 17.921875 3.421875 25.875 
Q 3.421875 33.640625 6 39.96875 
Q 8.59375 46.296875 13.765625 49.65625 
Q 18.953125 53.03125 25.34375 53.03125 
Q 30.03125 53.03125 33.6875 51.046875 
Q 37.359375 49.078125 39.65625 45.90625 
L 39.65625 71.578125 
L 48.390625 71.578125 
L 48.390625 0 
z
M 12.453125 25.875 
Q 12.453125 15.921875 16.640625 10.984375 
Q 20.84375 6.0625 26.5625 6.0625 
Q 32.328125 6.0625 36.34375 10.765625 
Q 40.375 15.484375 40.375 25.140625 
Q 40.375 35.796875 36.265625 40.765625 
Q 32.171875 45.75 26.171875 45.75 
Q 20.3125 45.75 16.375 40.96875 
Q 12.453125 36.1875 12.453125 25.875 
z
" id="ArialMT-100"/>
      </defs>
      <use xlink:href="#ArialMT-35"/>
      <use x="55.615234" xlink:href="#ArialMT-68"/>
      <use x="127.832031" xlink:href="#ArialMT-97"/>
      <use x="183.447266" xlink:href="#ArialMT-116"/>
      <use x="211.230469" xlink:href="#ArialMT-97"/>
      <use x="266.845703" xlink:href="#ArialMT-32"/>
      <use x="292.878906" xlink:href="#ArialMT-84"/>
      <use x="348.462891" xlink:href="#ArialMT-121"/>
      <use x="398.462891" xlink:href="#ArialMT-112"/>
      <use x="454.078125" xlink:href="#ArialMT-101"/>
      <use x="509.693359" xlink:href="#ArialMT-115"/>
      <use x="559.693359" xlink:href="#ArialMT-32"/>
      <use x="587.476562" xlink:href="#ArialMT-67"/>
      <use x="659.693359" xlink:href="#ArialMT-111"/>
      <use x="715.308594" xlink:href="#ArialMT-108"/>
      <use x="737.525391" xlink:href="#ArialMT-108"/>
      <use x="759.742188" xlink:href="#ArialMT-101"/>
      <use x="815.357422" xlink:href="#ArialMT-99"/>
      <use x="865.357422" xlink:href="#ArialMT-116"/>
      <use x="893.140625" xlink:href="#ArialMT-101"/>
      <use x="948.755859" xlink:href="#ArialMT-100"/>
     </g>
    </g>
   </g>
   <g id="matplotlib.axis_2">
    <g id="ytick_1">
     <g id="line2d_8">
      <path clip-path="url(#pe80c149ea2)" d="M 56.28875 837.335625 
L 1172.28875 837.335625 
" style="fill:none;stroke:#cccccc;stroke-linecap:round;"/>
     </g>
     <g id="text_9">
      <!-- 0 -->
      <g style="fill:#262626;" transform="translate(40.671719 841.272422)scale(0.11 -0.11)">
       <use xlink:href="#ArialMT-48"/>
      </g>
     </g>
    </g>
    <g id="ytick_2">
     <g id="line2d_9">
      <path clip-path="url(#pe80c149ea2)" d="M 56.28875 728.389016 
L 1172.28875 728.389016 
" style="fill:none;stroke:#cccccc;stroke-linecap:round;"/>
     </g>
     <g id="text_10">
      <!-- 250 -->
      <g style="fill:#262626;" transform="translate(28.437656 732.325813)scale(0.11 -0.11)">
       <defs>
        <path d="M 4.15625 18.75 
L 13.375 19.53125 
Q 14.40625 12.796875 18.140625 9.390625 
Q 21.875 6 27.15625 6 
Q 33.5 6 37.890625 10.78125 
Q 42.28125 15.578125 42.28125 23.484375 
Q 42.28125 31 38.0625 35.34375 
Q 33.84375 39.703125 27 39.703125 
Q 22.75 39.703125 19.328125 37.765625 
Q 15.921875 35.84375 13.96875 32.765625 
L 5.71875 33.84375 
L 12.640625 70.609375 
L 48.25 70.609375 
L 48.25 62.203125 
L 19.671875 62.203125 
L 15.828125 42.96875 
Q 22.265625 47.46875 29.34375 47.46875 
Q 38.71875 47.46875 45.15625 40.96875 
Q 51.609375 34.46875 51.609375 24.265625 
Q 51.609375 14.546875 45.953125 7.46875 
Q 39.0625 -1.21875 27.15625 -1.21875 
Q 17.390625 -1.21875 11.203125 4.25 
Q 5.03125 9.71875 4.15625 18.75 
z
" id="ArialMT-53"/>
       </defs>
       <use xlink:href="#ArialMT-50"/>
       <use x="55.615234" xlink:href="#ArialMT-53"/>
       <use x="111.230469" xlink:href="#ArialMT-48"/>
      </g>
     </g>
    </g>
    <g id="ytick_3">
     <g id="line2d_10">
      <path clip-path="url(#pe80c149ea2)" d="M 56.28875 619.442407 
L 1172.28875 619.442407 
" style="fill:none;stroke:#cccccc;stroke-linecap:round;"/>
     </g>
     <g id="text_11">
      <!-- 500 -->
      <g style="fill:#262626;" transform="translate(28.437656 623.379204)scale(0.11 -0.11)">
       <use xlink:href="#ArialMT-53"/>
       <use x="55.615234" xlink:href="#ArialMT-48"/>
       <use x="111.230469" xlink:href="#ArialMT-48"/>
      </g>
     </g>
    </g>
    <g id="ytick_4">
     <g id="line2d_11">
      <path clip-path="url(#pe80c149ea2)" d="M 56.28875 510.495798 
L 1172.28875 510.495798 
" style="fill:none;stroke:#cccccc;stroke-linecap:round;"/>
     </g>
     <g id="text_12">
      <!-- 750 -->
      <g style="fill:#262626;" transform="translate(28.437656 514.432595)scale(0.11 -0.11)">
       <defs>
        <path d="M 4.734375 62.203125 
L 4.734375 70.65625 
L 51.078125 70.65625 
L 51.078125 63.8125 
Q 44.234375 56.546875 37.515625 44.484375 
Q 30.8125 32.421875 27.15625 19.671875 
Q 24.515625 10.6875 23.78125 0 
L 14.75 0 
Q 14.890625 8.453125 18.0625 20.40625 
Q 21.234375 32.375 27.171875 43.484375 
Q 33.109375 54.59375 39.796875 62.203125 
z
" id="ArialMT-55"/>
       </defs>
       <use xlink:href="#ArialMT-55"/>
       <use x="55.615234" xlink:href="#ArialMT-53"/>
       <use x="111.230469" xlink:href="#ArialMT-48"/>
      </g>
     </g>
    </g>
    <g id="ytick_5">
     <g id="line2d_12">
      <path clip-path="url(#pe80c149ea2)" d="M 56.28875 401.549189 
L 1172.28875 401.549189 
" style="fill:none;stroke:#cccccc;stroke-linecap:round;"/>
     </g>
     <g id="text_13">
      <!-- 1000 -->
      <g style="fill:#262626;" transform="translate(22.320625 405.485986)scale(0.11 -0.11)">
       <use xlink:href="#ArialMT-49"/>
       <use x="55.615234" xlink:href="#ArialMT-48"/>
       <use x="111.230469" xlink:href="#ArialMT-48"/>
       <use x="166.845703" xlink:href="#ArialMT-48"/>
      </g>
     </g>
    </g>
    <g id="ytick_6">
     <g id="line2d_13">
      <path clip-path="url(#pe80c149ea2)" d="M 56.28875 292.60258 
L 1172.28875 292.60258 
" style="fill:none;stroke:#cccccc;stroke-linecap:round;"/>
     </g>
     <g id="text_14">
      <!-- 1250 -->
      <g style="fill:#262626;" transform="translate(22.320625 296.539377)scale(0.11 -0.11)">
       <use xlink:href="#ArialMT-49"/>
       <use x="55.615234" xlink:href="#ArialMT-50"/>
       <use x="111.230469" xlink:href="#ArialMT-53"/>
       <use x="166.845703" xlink:href="#ArialMT-48"/>
      </g>
     </g>
    </g>
    <g id="ytick_7">
     <g id="line2d_14">
      <path clip-path="url(#pe80c149ea2)" d="M 56.28875 183.655971 
L 1172.28875 183.655971 
" style="fill:none;stroke:#cccccc;stroke-linecap:round;"/>
     </g>
     <g id="text_15">
      <!-- 1500 -->
      <g style="fill:#262626;" transform="translate(22.320625 187.592768)scale(0.11 -0.11)">
       <use xlink:href="#ArialMT-49"/>
       <use x="55.615234" xlink:href="#ArialMT-53"/>
       <use x="111.230469" xlink:href="#ArialMT-48"/>
       <use x="166.845703" xlink:href="#ArialMT-48"/>
      </g>
     </g>
    </g>
    <g id="ytick_8">
     <g id="line2d_15">
      <path clip-path="url(#pe80c149ea2)" d="M 56.28875 74.709362 
L 1172.28875 74.709362 
" style="fill:none;stroke:#cccccc;stroke-linecap:round;"/>
     </g>
     <g id="text_16">
      <!-- 1750 -->
      <g style="fill:#262626;" transform="translate(22.320625 78.646159)scale(0.11 -0.11)">
       <use xlink:href="#ArialMT-49"/>
       <use x="55.615234" xlink:href="#ArialMT-55"/>
       <use x="111.230469" xlink:href="#ArialMT-53"/>
       <use x="166.845703" xlink:href="#ArialMT-48"/>
      </g>
     </g>
    </g>
    <g id="text_17">
     <!-- #Apps -->
     <g style="fill:#262626;" transform="translate(15.935625 446.6475)rotate(-90)scale(0.12 -0.12)">
      <defs>
       <path d="M -0.140625 0 
L 27.34375 71.578125 
L 37.546875 71.578125 
L 66.84375 0 
L 56.0625 0 
L 47.703125 21.6875 
L 17.78125 21.6875 
L 9.90625 0 
z
M 20.515625 29.390625 
L 44.78125 29.390625 
L 37.3125 49.21875 
Q 33.890625 58.25 32.234375 64.0625 
Q 30.859375 57.171875 28.375 50.390625 
z
" id="ArialMT-65"/>
      </defs>
      <use xlink:href="#ArialMT-35"/>
      <use x="55.615234" xlink:href="#ArialMT-65"/>
      <use x="122.314453" xlink:href="#ArialMT-112"/>
      <use x="177.929688" xlink:href="#ArialMT-112"/>
      <use x="233.544922" xlink:href="#ArialMT-115"/>
     </g>
    </g>
   </g>
   <g id="patch_3">
    <path clip-path="url(#pe80c149ea2)" d="M 107.016023 837.335625 
L 116.587206 837.335625 
L 116.587206 60.764196 
L 107.016023 60.764196 
z
" style="fill:#4c72b0;fill-opacity:0.75;stroke:#ffffff;stroke-linejoin:miter;stroke-width:0.957118;"/>
   </g>
   <g id="patch_4">
    <path clip-path="url(#pe80c149ea2)" d="M 116.587206 837.335625 
L 126.15839 837.335625 
L 126.15839 794.192768 
L 116.587206 794.192768 
z
" style="fill:#4c72b0;fill-opacity:0.75;stroke:#ffffff;stroke-linejoin:miter;stroke-width:0.957118;"/>
   </g>
   <g id="patch_5">
    <path clip-path="url(#pe80c149ea2)" d="M 126.15839 837.335625 
L 135.729573 837.335625 
L 135.729573 797.679059 
L 126.15839 797.679059 
z
" style="fill:#4c72b0;fill-opacity:0.75;stroke:#ffffff;stroke-linejoin:miter;stroke-width:0.957118;"/>
   </g>
   <g id="patch_6">
    <path clip-path="url(#pe80c149ea2)" d="M 135.729573 837.335625 
L 145.300757 837.335625 
L 145.300757 790.706476 
L 135.729573 790.706476 
z
" style="fill:#4c72b0;fill-opacity:0.75;stroke:#ffffff;stroke-linejoin:miter;stroke-width:0.957118;"/>
   </g>
   <g id="patch_7">
    <path clip-path="url(#pe80c149ea2)" d="M 145.300757 837.335625 
L 154.87194 837.335625 
L 154.87194 761.508785 
L 145.300757 761.508785 
z
" style="fill:#4c72b0;fill-opacity:0.75;stroke:#ffffff;stroke-linejoin:miter;stroke-width:0.957118;"/>
   </g>
   <g id="patch_8">
    <path clip-path="url(#pe80c149ea2)" d="M 154.87194 837.335625 
L 164.443124 837.335625 
L 164.443124 815.110517 
L 154.87194 815.110517 
z
" style="fill:#4c72b0;fill-opacity:0.75;stroke:#ffffff;stroke-linejoin:miter;stroke-width:0.957118;"/>
   </g>
   <g id="patch_9">
    <path clip-path="url(#pe80c149ea2)" d="M 164.443124 837.335625 
L 174.014307 837.335625 
L 174.014307 806.394788 
L 164.443124 806.394788 
z
" style="fill:#4c72b0;fill-opacity:0.75;stroke:#ffffff;stroke-linejoin:miter;stroke-width:0.957118;"/>
   </g>
   <g id="patch_10">
    <path clip-path="url(#pe80c149ea2)" d="M 174.014307 837.335625 
L 183.585491 837.335625 
L 183.585491 814.67473 
L 174.014307 814.67473 
z
" style="fill:#4c72b0;fill-opacity:0.75;stroke:#ffffff;stroke-linejoin:miter;stroke-width:0.957118;"/>
   </g>
   <g id="patch_11">
    <path clip-path="url(#pe80c149ea2)" d="M 183.585491 837.335625 
L 193.156675 837.335625 
L 193.156675 811.624225 
L 183.585491 811.624225 
z
" style="fill:#4c72b0;fill-opacity:0.75;stroke:#ffffff;stroke-linejoin:miter;stroke-width:0.957118;"/>
   </g>
   <g id="patch_12">
    <path clip-path="url(#pe80c149ea2)" d="M 193.156675 837.335625 
L 202.727858 837.335625 
L 202.727858 799.422205 
L 193.156675 799.422205 
z
" style="fill:#4c72b0;fill-opacity:0.75;stroke:#ffffff;stroke-linejoin:miter;stroke-width:0.957118;"/>
   </g>
   <g id="patch_13">
    <path clip-path="url(#pe80c149ea2)" d="M 202.727858 837.335625 
L 212.299042 837.335625 
L 212.299042 808.137934 
L 202.727858 808.137934 
z
" style="fill:#4c72b0;fill-opacity:0.75;stroke:#ffffff;stroke-linejoin:miter;stroke-width:0.957118;"/>
   </g>
   <g id="patch_14">
    <path clip-path="url(#pe80c149ea2)" d="M 212.299042 837.335625 
L 221.870225 837.335625 
L 221.870225 818.161022 
L 212.299042 818.161022 
z
" style="fill:#4c72b0;fill-opacity:0.75;stroke:#ffffff;stroke-linejoin:miter;stroke-width:0.957118;"/>
   </g>
   <g id="patch_15">
    <path clip-path="url(#pe80c149ea2)" d="M 221.870225 837.335625 
L 231.441409 837.335625 
L 231.441409 810.752652 
L 221.870225 810.752652 
z
" style="fill:#4c72b0;fill-opacity:0.75;stroke:#ffffff;stroke-linejoin:miter;stroke-width:0.957118;"/>
   </g>
   <g id="patch_16">
    <path clip-path="url(#pe80c149ea2)" d="M 231.441409 837.335625 
L 241.012592 837.335625 
L 241.012592 819.032595 
L 231.441409 819.032595 
z
" style="fill:#4c72b0;fill-opacity:0.75;stroke:#ffffff;stroke-linejoin:miter;stroke-width:0.957118;"/>
   </g>
   <g id="patch_17">
    <path clip-path="url(#pe80c149ea2)" d="M 241.012592 837.335625 
L 250.583776 837.335625 
L 250.583776 806.394788 
L 241.012592 806.394788 
z
" style="fill:#4c72b0;fill-opacity:0.75;stroke:#ffffff;stroke-linejoin:miter;stroke-width:0.957118;"/>
   </g>
   <g id="patch_18">
    <path clip-path="url(#pe80c149ea2)" d="M 250.583776 837.335625 
L 260.154959 837.335625 
L 260.154959 829.055683 
L 250.583776 829.055683 
z
" style="fill:#4c72b0;fill-opacity:0.75;stroke:#ffffff;stroke-linejoin:miter;stroke-width:0.957118;"/>
   </g>
   <g id="patch_19">
    <path clip-path="url(#pe80c149ea2)" d="M 260.154959 837.335625 
L 269.726143 837.335625 
L 269.726143 823.826245 
L 260.154959 823.826245 
z
" style="fill:#4c72b0;fill-opacity:0.75;stroke:#ffffff;stroke-linejoin:miter;stroke-width:0.957118;"/>
   </g>
   <g id="patch_20">
    <path clip-path="url(#pe80c149ea2)" d="M 269.726143 837.335625 
L 279.297326 837.335625 
L 279.297326 828.18411 
L 269.726143 828.18411 
z
" style="fill:#4c72b0;fill-opacity:0.75;stroke:#ffffff;stroke-linejoin:miter;stroke-width:0.957118;"/>
   </g>
   <g id="patch_21">
    <path clip-path="url(#pe80c149ea2)" d="M 279.297326 837.335625 
L 288.86851 837.335625 
L 288.86851 827.312537 
L 279.297326 827.312537 
z
" style="fill:#4c72b0;fill-opacity:0.75;stroke:#ffffff;stroke-linejoin:miter;stroke-width:0.957118;"/>
   </g>
   <g id="patch_22">
    <path clip-path="url(#pe80c149ea2)" d="M 288.86851 837.335625 
L 298.439693 837.335625 
L 298.439693 818.161022 
L 288.86851 818.161022 
z
" style="fill:#4c72b0;fill-opacity:0.75;stroke:#ffffff;stroke-linejoin:miter;stroke-width:0.957118;"/>
   </g>
   <g id="patch_23">
    <path clip-path="url(#pe80c149ea2)" d="M 298.439693 837.335625 
L 308.010877 837.335625 
L 308.010877 830.798828 
L 298.439693 830.798828 
z
" style="fill:#4c72b0;fill-opacity:0.75;stroke:#ffffff;stroke-linejoin:miter;stroke-width:0.957118;"/>
   </g>
   <g id="patch_24">
    <path clip-path="url(#pe80c149ea2)" d="M 308.010877 837.335625 
L 317.58206 837.335625 
L 317.58206 829.927256 
L 308.010877 829.927256 
z
" style="fill:#4c72b0;fill-opacity:0.75;stroke:#ffffff;stroke-linejoin:miter;stroke-width:0.957118;"/>
   </g>
   <g id="patch_25">
    <path clip-path="url(#pe80c149ea2)" d="M 317.58206 837.335625 
L 327.153244 837.335625 
L 327.153244 833.413547 
L 317.58206 833.413547 
z
" style="fill:#4c72b0;fill-opacity:0.75;stroke:#ffffff;stroke-linejoin:miter;stroke-width:0.957118;"/>
   </g>
   <g id="patch_26">
    <path clip-path="url(#pe80c149ea2)" d="M 327.153244 837.335625 
L 336.724428 837.335625 
L 336.724428 828.18411 
L 327.153244 828.18411 
z
" style="fill:#4c72b0;fill-opacity:0.75;stroke:#ffffff;stroke-linejoin:miter;stroke-width:0.957118;"/>
   </g>
   <g id="patch_27">
    <path clip-path="url(#pe80c149ea2)" d="M 336.724428 837.335625 
L 346.295611 837.335625 
L 346.295611 826.440964 
L 336.724428 826.440964 
z
" style="fill:#4c72b0;fill-opacity:0.75;stroke:#ffffff;stroke-linejoin:miter;stroke-width:0.957118;"/>
   </g>
   <g id="patch_28">
    <path clip-path="url(#pe80c149ea2)" d="M 346.295611 837.335625 
L 355.866795 837.335625 
L 355.866795 830.798828 
L 346.295611 830.798828 
z
" style="fill:#4c72b0;fill-opacity:0.75;stroke:#ffffff;stroke-linejoin:miter;stroke-width:0.957118;"/>
   </g>
   <g id="patch_29">
    <path clip-path="url(#pe80c149ea2)" d="M 355.866795 837.335625 
L 365.437978 837.335625 
L 365.437978 826.876751 
L 355.866795 826.876751 
z
" style="fill:#4c72b0;fill-opacity:0.75;stroke:#ffffff;stroke-linejoin:miter;stroke-width:0.957118;"/>
   </g>
   <g id="patch_30">
    <path clip-path="url(#pe80c149ea2)" d="M 365.437978 837.335625 
L 375.009162 837.335625 
L 375.009162 834.28512 
L 365.437978 834.28512 
z
" style="fill:#4c72b0;fill-opacity:0.75;stroke:#ffffff;stroke-linejoin:miter;stroke-width:0.957118;"/>
   </g>
   <g id="patch_31">
    <path clip-path="url(#pe80c149ea2)" d="M 375.009162 837.335625 
L 384.580345 837.335625 
L 384.580345 829.927256 
L 375.009162 829.927256 
z
" style="fill:#4c72b0;fill-opacity:0.75;stroke:#ffffff;stroke-linejoin:miter;stroke-width:0.957118;"/>
   </g>
   <g id="patch_32">
    <path clip-path="url(#pe80c149ea2)" d="M 384.580345 837.335625 
L 394.151529 837.335625 
L 394.151529 834.720906 
L 384.580345 834.720906 
z
" style="fill:#4c72b0;fill-opacity:0.75;stroke:#ffffff;stroke-linejoin:miter;stroke-width:0.957118;"/>
   </g>
   <g id="patch_33">
    <path clip-path="url(#pe80c149ea2)" d="M 394.151529 837.335625 
L 403.722712 837.335625 
L 403.722712 835.592479 
L 394.151529 835.592479 
z
" style="fill:#4c72b0;fill-opacity:0.75;stroke:#ffffff;stroke-linejoin:miter;stroke-width:0.957118;"/>
   </g>
   <g id="patch_34">
    <path clip-path="url(#pe80c149ea2)" d="M 403.722712 837.335625 
L 413.293896 837.335625 
L 413.293896 833.849334 
L 403.722712 833.849334 
z
" style="fill:#4c72b0;fill-opacity:0.75;stroke:#ffffff;stroke-linejoin:miter;stroke-width:0.957118;"/>
   </g>
   <g id="patch_35">
    <path clip-path="url(#pe80c149ea2)" d="M 413.293896 837.335625 
L 422.865079 837.335625 
L 422.865079 832.977761 
L 413.293896 832.977761 
z
" style="fill:#4c72b0;fill-opacity:0.75;stroke:#ffffff;stroke-linejoin:miter;stroke-width:0.957118;"/>
   </g>
   <g id="patch_36">
    <path clip-path="url(#pe80c149ea2)" d="M 422.865079 837.335625 
L 432.436263 837.335625 
L 432.436263 834.28512 
L 422.865079 834.28512 
z
" style="fill:#4c72b0;fill-opacity:0.75;stroke:#ffffff;stroke-linejoin:miter;stroke-width:0.957118;"/>
   </g>
   <g id="patch_37">
    <path clip-path="url(#pe80c149ea2)" d="M 432.436263 837.335625 
L 442.007446 837.335625 
L 442.007446 836.028266 
L 432.436263 836.028266 
z
" style="fill:#4c72b0;fill-opacity:0.75;stroke:#ffffff;stroke-linejoin:miter;stroke-width:0.957118;"/>
   </g>
   <g id="patch_38">
    <path clip-path="url(#pe80c149ea2)" d="M 442.007446 837.335625 
L 451.57863 837.335625 
L 451.57863 836.464052 
L 442.007446 836.464052 
z
" style="fill:#4c72b0;fill-opacity:0.75;stroke:#ffffff;stroke-linejoin:miter;stroke-width:0.957118;"/>
   </g>
   <g id="patch_39">
    <path clip-path="url(#pe80c149ea2)" d="M 451.57863 837.335625 
L 461.149813 837.335625 
L 461.149813 836.899839 
L 451.57863 836.899839 
z
" style="fill:#4c72b0;fill-opacity:0.75;stroke:#ffffff;stroke-linejoin:miter;stroke-width:0.957118;"/>
   </g>
   <g id="patch_40">
    <path clip-path="url(#pe80c149ea2)" d="M 461.149813 837.335625 
L 470.720997 837.335625 
L 470.720997 836.899839 
L 461.149813 836.899839 
z
" style="fill:#4c72b0;fill-opacity:0.75;stroke:#ffffff;stroke-linejoin:miter;stroke-width:0.957118;"/>
   </g>
   <g id="patch_41">
    <path clip-path="url(#pe80c149ea2)" d="M 470.720997 837.335625 
L 480.292181 837.335625 
L 480.292181 834.28512 
L 470.720997 834.28512 
z
" style="fill:#4c72b0;fill-opacity:0.75;stroke:#ffffff;stroke-linejoin:miter;stroke-width:0.957118;"/>
   </g>
   <g id="patch_42">
    <path clip-path="url(#pe80c149ea2)" d="M 480.292181 837.335625 
L 489.863364 837.335625 
L 489.863364 836.899839 
L 480.292181 836.899839 
z
" style="fill:#4c72b0;fill-opacity:0.75;stroke:#ffffff;stroke-linejoin:miter;stroke-width:0.957118;"/>
   </g>
   <g id="patch_43">
    <path clip-path="url(#pe80c149ea2)" d="M 489.863364 837.335625 
L 499.434548 837.335625 
L 499.434548 836.464052 
L 489.863364 836.464052 
z
" style="fill:#4c72b0;fill-opacity:0.75;stroke:#ffffff;stroke-linejoin:miter;stroke-width:0.957118;"/>
   </g>
   <g id="patch_44">
    <path clip-path="url(#pe80c149ea2)" d="M 499.434548 837.335625 
L 509.005731 837.335625 
L 509.005731 834.28512 
L 499.434548 834.28512 
z
" style="fill:#4c72b0;fill-opacity:0.75;stroke:#ffffff;stroke-linejoin:miter;stroke-width:0.957118;"/>
   </g>
   <g id="patch_45">
    <path clip-path="url(#pe80c149ea2)" d="M 509.005731 837.335625 
L 518.576915 837.335625 
L 518.576915 836.028266 
L 509.005731 836.028266 
z
" style="fill:#4c72b0;fill-opacity:0.75;stroke:#ffffff;stroke-linejoin:miter;stroke-width:0.957118;"/>
   </g>
   <g id="patch_46">
    <path clip-path="url(#pe80c149ea2)" d="M 518.576915 837.335625 
L 528.148098 837.335625 
L 528.148098 836.028266 
L 518.576915 836.028266 
z
" style="fill:#4c72b0;fill-opacity:0.75;stroke:#ffffff;stroke-linejoin:miter;stroke-width:0.957118;"/>
   </g>
   <g id="patch_47">
    <path clip-path="url(#pe80c149ea2)" d="M 528.148098 837.335625 
L 537.719282 837.335625 
L 537.719282 836.028266 
L 528.148098 836.028266 
z
" style="fill:#4c72b0;fill-opacity:0.75;stroke:#ffffff;stroke-linejoin:miter;stroke-width:0.957118;"/>
   </g>
   <g id="patch_48">
    <path clip-path="url(#pe80c149ea2)" d="M 537.719282 837.335625 
L 547.290465 837.335625 
L 547.290465 836.028266 
L 537.719282 836.028266 
z
" style="fill:#4c72b0;fill-opacity:0.75;stroke:#ffffff;stroke-linejoin:miter;stroke-width:0.957118;"/>
   </g>
   <g id="patch_49">
    <path clip-path="url(#pe80c149ea2)" d="M 547.290465 837.335625 
L 556.861649 837.335625 
L 556.861649 836.464052 
L 547.290465 836.464052 
z
" style="fill:#4c72b0;fill-opacity:0.75;stroke:#ffffff;stroke-linejoin:miter;stroke-width:0.957118;"/>
   </g>
   <g id="patch_50">
    <path clip-path="url(#pe80c149ea2)" d="M 556.861649 837.335625 
L 566.432832 837.335625 
L 566.432832 837.335625 
L 556.861649 837.335625 
z
" style="fill:#4c72b0;fill-opacity:0.75;stroke:#ffffff;stroke-linejoin:miter;stroke-width:0.957118;"/>
   </g>
   <g id="patch_51">
    <path clip-path="url(#pe80c149ea2)" d="M 566.432832 837.335625 
L 576.004016 837.335625 
L 576.004016 837.335625 
L 566.432832 837.335625 
z
" style="fill:#4c72b0;fill-opacity:0.75;stroke:#ffffff;stroke-linejoin:miter;stroke-width:0.957118;"/>
   </g>
   <g id="patch_52">
    <path clip-path="url(#pe80c149ea2)" d="M 576.004016 837.335625 
L 585.575199 837.335625 
L 585.575199 836.899839 
L 576.004016 836.899839 
z
" style="fill:#4c72b0;fill-opacity:0.75;stroke:#ffffff;stroke-linejoin:miter;stroke-width:0.957118;"/>
   </g>
   <g id="patch_53">
    <path clip-path="url(#pe80c149ea2)" d="M 585.575199 837.335625 
L 595.146383 837.335625 
L 595.146383 837.335625 
L 585.575199 837.335625 
z
" style="fill:#4c72b0;fill-opacity:0.75;stroke:#ffffff;stroke-linejoin:miter;stroke-width:0.957118;"/>
   </g>
   <g id="patch_54">
    <path clip-path="url(#pe80c149ea2)" d="M 595.146383 837.335625 
L 604.717566 837.335625 
L 604.717566 837.335625 
L 595.146383 837.335625 
z
" style="fill:#4c72b0;fill-opacity:0.75;stroke:#ffffff;stroke-linejoin:miter;stroke-width:0.957118;"/>
   </g>
   <g id="patch_55">
    <path clip-path="url(#pe80c149ea2)" d="M 604.717566 837.335625 
L 614.28875 837.335625 
L 614.28875 837.335625 
L 604.717566 837.335625 
z
" style="fill:#4c72b0;fill-opacity:0.75;stroke:#ffffff;stroke-linejoin:miter;stroke-width:0.957118;"/>
   </g>
   <g id="patch_56">
    <path clip-path="url(#pe80c149ea2)" d="M 614.28875 837.335625 
L 623.859934 837.335625 
L 623.859934 837.335625 
L 614.28875 837.335625 
z
" style="fill:#4c72b0;fill-opacity:0.75;stroke:#ffffff;stroke-linejoin:miter;stroke-width:0.957118;"/>
   </g>
   <g id="patch_57">
    <path clip-path="url(#pe80c149ea2)" d="M 623.859934 837.335625 
L 633.431117 837.335625 
L 633.431117 837.335625 
L 623.859934 837.335625 
z
" style="fill:#4c72b0;fill-opacity:0.75;stroke:#ffffff;stroke-linejoin:miter;stroke-width:0.957118;"/>
   </g>
   <g id="patch_58">
    <path clip-path="url(#pe80c149ea2)" d="M 633.431117 837.335625 
L 643.002301 837.335625 
L 643.002301 837.335625 
L 633.431117 837.335625 
z
" style="fill:#4c72b0;fill-opacity:0.75;stroke:#ffffff;stroke-linejoin:miter;stroke-width:0.957118;"/>
   </g>
   <g id="patch_59">
    <path clip-path="url(#pe80c149ea2)" d="M 643.002301 837.335625 
L 652.573484 837.335625 
L 652.573484 837.335625 
L 643.002301 837.335625 
z
" style="fill:#4c72b0;fill-opacity:0.75;stroke:#ffffff;stroke-linejoin:miter;stroke-width:0.957118;"/>
   </g>
   <g id="patch_60">
    <path clip-path="url(#pe80c149ea2)" d="M 652.573484 837.335625 
L 662.144668 837.335625 
L 662.144668 837.335625 
L 652.573484 837.335625 
z
" style="fill:#4c72b0;fill-opacity:0.75;stroke:#ffffff;stroke-linejoin:miter;stroke-width:0.957118;"/>
   </g>
   <g id="patch_61">
    <path clip-path="url(#pe80c149ea2)" d="M 662.144668 837.335625 
L 671.715851 837.335625 
L 671.715851 837.335625 
L 662.144668 837.335625 
z
" style="fill:#4c72b0;fill-opacity:0.75;stroke:#ffffff;stroke-linejoin:miter;stroke-width:0.957118;"/>
   </g>
   <g id="patch_62">
    <path clip-path="url(#pe80c149ea2)" d="M 671.715851 837.335625 
L 681.287035 837.335625 
L 681.287035 837.335625 
L 671.715851 837.335625 
z
" style="fill:#4c72b0;fill-opacity:0.75;stroke:#ffffff;stroke-linejoin:miter;stroke-width:0.957118;"/>
   </g>
   <g id="patch_63">
    <path clip-path="url(#pe80c149ea2)" d="M 681.287035 837.335625 
L 690.858218 837.335625 
L 690.858218 837.335625 
L 681.287035 837.335625 
z
" style="fill:#4c72b0;fill-opacity:0.75;stroke:#ffffff;stroke-linejoin:miter;stroke-width:0.957118;"/>
   </g>
   <g id="patch_64">
    <path clip-path="url(#pe80c149ea2)" d="M 690.858218 837.335625 
L 700.429402 837.335625 
L 700.429402 837.335625 
L 690.858218 837.335625 
z
" style="fill:#4c72b0;fill-opacity:0.75;stroke:#ffffff;stroke-linejoin:miter;stroke-width:0.957118;"/>
   </g>
   <g id="patch_65">
    <path clip-path="url(#pe80c149ea2)" d="M 700.429402 837.335625 
L 710.000585 837.335625 
L 710.000585 837.335625 
L 700.429402 837.335625 
z
" style="fill:#4c72b0;fill-opacity:0.75;stroke:#ffffff;stroke-linejoin:miter;stroke-width:0.957118;"/>
   </g>
   <g id="patch_66">
    <path clip-path="url(#pe80c149ea2)" d="M 710.000585 837.335625 
L 719.571769 837.335625 
L 719.571769 837.335625 
L 710.000585 837.335625 
z
" style="fill:#4c72b0;fill-opacity:0.75;stroke:#ffffff;stroke-linejoin:miter;stroke-width:0.957118;"/>
   </g>
   <g id="patch_67">
    <path clip-path="url(#pe80c149ea2)" d="M 719.571769 837.335625 
L 729.142952 837.335625 
L 729.142952 837.335625 
L 719.571769 837.335625 
z
" style="fill:#4c72b0;fill-opacity:0.75;stroke:#ffffff;stroke-linejoin:miter;stroke-width:0.957118;"/>
   </g>
   <g id="patch_68">
    <path clip-path="url(#pe80c149ea2)" d="M 729.142952 837.335625 
L 738.714136 837.335625 
L 738.714136 837.335625 
L 729.142952 837.335625 
z
" style="fill:#4c72b0;fill-opacity:0.75;stroke:#ffffff;stroke-linejoin:miter;stroke-width:0.957118;"/>
   </g>
   <g id="patch_69">
    <path clip-path="url(#pe80c149ea2)" d="M 738.714136 837.335625 
L 748.285319 837.335625 
L 748.285319 837.335625 
L 738.714136 837.335625 
z
" style="fill:#4c72b0;fill-opacity:0.75;stroke:#ffffff;stroke-linejoin:miter;stroke-width:0.957118;"/>
   </g>
   <g id="patch_70">
    <path clip-path="url(#pe80c149ea2)" d="M 748.285319 837.335625 
L 757.856503 837.335625 
L 757.856503 837.335625 
L 748.285319 837.335625 
z
" style="fill:#4c72b0;fill-opacity:0.75;stroke:#ffffff;stroke-linejoin:miter;stroke-width:0.957118;"/>
   </g>
   <g id="patch_71">
    <path clip-path="url(#pe80c149ea2)" d="M 757.856503 837.335625 
L 767.427687 837.335625 
L 767.427687 837.335625 
L 757.856503 837.335625 
z
" style="fill:#4c72b0;fill-opacity:0.75;stroke:#ffffff;stroke-linejoin:miter;stroke-width:0.957118;"/>
   </g>
   <g id="patch_72">
    <path clip-path="url(#pe80c149ea2)" d="M 767.427687 837.335625 
L 776.99887 837.335625 
L 776.99887 837.335625 
L 767.427687 837.335625 
z
" style="fill:#4c72b0;fill-opacity:0.75;stroke:#ffffff;stroke-linejoin:miter;stroke-width:0.957118;"/>
   </g>
   <g id="patch_73">
    <path clip-path="url(#pe80c149ea2)" d="M 776.99887 837.335625 
L 786.570054 837.335625 
L 786.570054 837.335625 
L 776.99887 837.335625 
z
" style="fill:#4c72b0;fill-opacity:0.75;stroke:#ffffff;stroke-linejoin:miter;stroke-width:0.957118;"/>
   </g>
   <g id="patch_74">
    <path clip-path="url(#pe80c149ea2)" d="M 786.570054 837.335625 
L 796.141237 837.335625 
L 796.141237 837.335625 
L 786.570054 837.335625 
z
" style="fill:#4c72b0;fill-opacity:0.75;stroke:#ffffff;stroke-linejoin:miter;stroke-width:0.957118;"/>
   </g>
   <g id="patch_75">
    <path clip-path="url(#pe80c149ea2)" d="M 796.141237 837.335625 
L 805.712421 837.335625 
L 805.712421 837.335625 
L 796.141237 837.335625 
z
" style="fill:#4c72b0;fill-opacity:0.75;stroke:#ffffff;stroke-linejoin:miter;stroke-width:0.957118;"/>
   </g>
   <g id="patch_76">
    <path clip-path="url(#pe80c149ea2)" d="M 805.712421 837.335625 
L 815.283604 837.335625 
L 815.283604 837.335625 
L 805.712421 837.335625 
z
" style="fill:#4c72b0;fill-opacity:0.75;stroke:#ffffff;stroke-linejoin:miter;stroke-width:0.957118;"/>
   </g>
   <g id="patch_77">
    <path clip-path="url(#pe80c149ea2)" d="M 815.283604 837.335625 
L 824.854788 837.335625 
L 824.854788 837.335625 
L 815.283604 837.335625 
z
" style="fill:#4c72b0;fill-opacity:0.75;stroke:#ffffff;stroke-linejoin:miter;stroke-width:0.957118;"/>
   </g>
   <g id="patch_78">
    <path clip-path="url(#pe80c149ea2)" d="M 824.854788 837.335625 
L 834.425971 837.335625 
L 834.425971 836.899839 
L 824.854788 836.899839 
z
" style="fill:#4c72b0;fill-opacity:0.75;stroke:#ffffff;stroke-linejoin:miter;stroke-width:0.957118;"/>
   </g>
   <g id="patch_79">
    <path clip-path="url(#pe80c149ea2)" d="M 834.425971 837.335625 
L 843.997155 837.335625 
L 843.997155 837.335625 
L 834.425971 837.335625 
z
" style="fill:#4c72b0;fill-opacity:0.75;stroke:#ffffff;stroke-linejoin:miter;stroke-width:0.957118;"/>
   </g>
   <g id="patch_80">
    <path clip-path="url(#pe80c149ea2)" d="M 843.997155 837.335625 
L 853.568338 837.335625 
L 853.568338 837.335625 
L 843.997155 837.335625 
z
" style="fill:#4c72b0;fill-opacity:0.75;stroke:#ffffff;stroke-linejoin:miter;stroke-width:0.957118;"/>
   </g>
   <g id="patch_81">
    <path clip-path="url(#pe80c149ea2)" d="M 853.568338 837.335625 
L 863.139522 837.335625 
L 863.139522 837.335625 
L 853.568338 837.335625 
z
" style="fill:#4c72b0;fill-opacity:0.75;stroke:#ffffff;stroke-linejoin:miter;stroke-width:0.957118;"/>
   </g>
   <g id="patch_82">
    <path clip-path="url(#pe80c149ea2)" d="M 863.139522 837.335625 
L 872.710705 837.335625 
L 872.710705 837.335625 
L 863.139522 837.335625 
z
" style="fill:#4c72b0;fill-opacity:0.75;stroke:#ffffff;stroke-linejoin:miter;stroke-width:0.957118;"/>
   </g>
   <g id="patch_83">
    <path clip-path="url(#pe80c149ea2)" d="M 872.710705 837.335625 
L 882.281889 837.335625 
L 882.281889 837.335625 
L 872.710705 837.335625 
z
" style="fill:#4c72b0;fill-opacity:0.75;stroke:#ffffff;stroke-linejoin:miter;stroke-width:0.957118;"/>
   </g>
   <g id="patch_84">
    <path clip-path="url(#pe80c149ea2)" d="M 882.281889 837.335625 
L 891.853072 837.335625 
L 891.853072 837.335625 
L 882.281889 837.335625 
z
" style="fill:#4c72b0;fill-opacity:0.75;stroke:#ffffff;stroke-linejoin:miter;stroke-width:0.957118;"/>
   </g>
   <g id="patch_85">
    <path clip-path="url(#pe80c149ea2)" d="M 891.853072 837.335625 
L 901.424256 837.335625 
L 901.424256 837.335625 
L 891.853072 837.335625 
z
" style="fill:#4c72b0;fill-opacity:0.75;stroke:#ffffff;stroke-linejoin:miter;stroke-width:0.957118;"/>
   </g>
   <g id="patch_86">
    <path clip-path="url(#pe80c149ea2)" d="M 901.424256 837.335625 
L 910.99544 837.335625 
L 910.99544 837.335625 
L 901.424256 837.335625 
z
" style="fill:#4c72b0;fill-opacity:0.75;stroke:#ffffff;stroke-linejoin:miter;stroke-width:0.957118;"/>
   </g>
   <g id="patch_87">
    <path clip-path="url(#pe80c149ea2)" d="M 910.99544 837.335625 
L 920.566623 837.335625 
L 920.566623 837.335625 
L 910.99544 837.335625 
z
" style="fill:#4c72b0;fill-opacity:0.75;stroke:#ffffff;stroke-linejoin:miter;stroke-width:0.957118;"/>
   </g>
   <g id="patch_88">
    <path clip-path="url(#pe80c149ea2)" d="M 920.566623 837.335625 
L 930.137807 837.335625 
L 930.137807 837.335625 
L 920.566623 837.335625 
z
" style="fill:#4c72b0;fill-opacity:0.75;stroke:#ffffff;stroke-linejoin:miter;stroke-width:0.957118;"/>
   </g>
   <g id="patch_89">
    <path clip-path="url(#pe80c149ea2)" d="M 930.137807 837.335625 
L 939.70899 837.335625 
L 939.70899 837.335625 
L 930.137807 837.335625 
z
" style="fill:#4c72b0;fill-opacity:0.75;stroke:#ffffff;stroke-linejoin:miter;stroke-width:0.957118;"/>
   </g>
   <g id="patch_90">
    <path clip-path="url(#pe80c149ea2)" d="M 939.70899 837.335625 
L 949.280174 837.335625 
L 949.280174 837.335625 
L 939.70899 837.335625 
z
" style="fill:#4c72b0;fill-opacity:0.75;stroke:#ffffff;stroke-linejoin:miter;stroke-width:0.957118;"/>
   </g>
   <g id="patch_91">
    <path clip-path="url(#pe80c149ea2)" d="M 949.280174 837.335625 
L 958.851357 837.335625 
L 958.851357 837.335625 
L 949.280174 837.335625 
z
" style="fill:#4c72b0;fill-opacity:0.75;stroke:#ffffff;stroke-linejoin:miter;stroke-width:0.957118;"/>
   </g>
   <g id="patch_92">
    <path clip-path="url(#pe80c149ea2)" d="M 958.851357 837.335625 
L 968.422541 837.335625 
L 968.422541 837.335625 
L 958.851357 837.335625 
z
" style="fill:#4c72b0;fill-opacity:0.75;stroke:#ffffff;stroke-linejoin:miter;stroke-width:0.957118;"/>
   </g>
   <g id="patch_93">
    <path clip-path="url(#pe80c149ea2)" d="M 968.422541 837.335625 
L 977.993724 837.335625 
L 977.993724 837.335625 
L 968.422541 837.335625 
z
" style="fill:#4c72b0;fill-opacity:0.75;stroke:#ffffff;stroke-linejoin:miter;stroke-width:0.957118;"/>
   </g>
   <g id="patch_94">
    <path clip-path="url(#pe80c149ea2)" d="M 977.993724 837.335625 
L 987.564908 837.335625 
L 987.564908 837.335625 
L 977.993724 837.335625 
z
" style="fill:#4c72b0;fill-opacity:0.75;stroke:#ffffff;stroke-linejoin:miter;stroke-width:0.957118;"/>
   </g>
   <g id="patch_95">
    <path clip-path="url(#pe80c149ea2)" d="M 987.564908 837.335625 
L 997.136091 837.335625 
L 997.136091 837.335625 
L 987.564908 837.335625 
z
" style="fill:#4c72b0;fill-opacity:0.75;stroke:#ffffff;stroke-linejoin:miter;stroke-width:0.957118;"/>
   </g>
   <g id="patch_96">
    <path clip-path="url(#pe80c149ea2)" d="M 997.136091 837.335625 
L 1006.707275 837.335625 
L 1006.707275 837.335625 
L 997.136091 837.335625 
z
" style="fill:#4c72b0;fill-opacity:0.75;stroke:#ffffff;stroke-linejoin:miter;stroke-width:0.957118;"/>
   </g>
   <g id="patch_97">
    <path clip-path="url(#pe80c149ea2)" d="M 1006.707275 837.335625 
L 1016.278458 837.335625 
L 1016.278458 837.335625 
L 1006.707275 837.335625 
z
" style="fill:#4c72b0;fill-opacity:0.75;stroke:#ffffff;stroke-linejoin:miter;stroke-width:0.957118;"/>
   </g>
   <g id="patch_98">
    <path clip-path="url(#pe80c149ea2)" d="M 1016.278458 837.335625 
L 1025.849642 837.335625 
L 1025.849642 837.335625 
L 1016.278458 837.335625 
z
" style="fill:#4c72b0;fill-opacity:0.75;stroke:#ffffff;stroke-linejoin:miter;stroke-width:0.957118;"/>
   </g>
   <g id="patch_99">
    <path clip-path="url(#pe80c149ea2)" d="M 1025.849642 837.335625 
L 1035.420825 837.335625 
L 1035.420825 837.335625 
L 1025.849642 837.335625 
z
" style="fill:#4c72b0;fill-opacity:0.75;stroke:#ffffff;stroke-linejoin:miter;stroke-width:0.957118;"/>
   </g>
   <g id="patch_100">
    <path clip-path="url(#pe80c149ea2)" d="M 1035.420825 837.335625 
L 1044.992009 837.335625 
L 1044.992009 837.335625 
L 1035.420825 837.335625 
z
" style="fill:#4c72b0;fill-opacity:0.75;stroke:#ffffff;stroke-linejoin:miter;stroke-width:0.957118;"/>
   </g>
   <g id="patch_101">
    <path clip-path="url(#pe80c149ea2)" d="M 1044.992009 837.335625 
L 1054.563193 837.335625 
L 1054.563193 837.335625 
L 1044.992009 837.335625 
z
" style="fill:#4c72b0;fill-opacity:0.75;stroke:#ffffff;stroke-linejoin:miter;stroke-width:0.957118;"/>
   </g>
   <g id="patch_102">
    <path clip-path="url(#pe80c149ea2)" d="M 1054.563193 837.335625 
L 1064.134376 837.335625 
L 1064.134376 837.335625 
L 1054.563193 837.335625 
z
" style="fill:#4c72b0;fill-opacity:0.75;stroke:#ffffff;stroke-linejoin:miter;stroke-width:0.957118;"/>
   </g>
   <g id="patch_103">
    <path clip-path="url(#pe80c149ea2)" d="M 1064.134376 837.335625 
L 1073.70556 837.335625 
L 1073.70556 837.335625 
L 1064.134376 837.335625 
z
" style="fill:#4c72b0;fill-opacity:0.75;stroke:#ffffff;stroke-linejoin:miter;stroke-width:0.957118;"/>
   </g>
   <g id="patch_104">
    <path clip-path="url(#pe80c149ea2)" d="M 1073.70556 837.335625 
L 1083.276743 837.335625 
L 1083.276743 837.335625 
L 1073.70556 837.335625 
z
" style="fill:#4c72b0;fill-opacity:0.75;stroke:#ffffff;stroke-linejoin:miter;stroke-width:0.957118;"/>
   </g>
   <g id="patch_105">
    <path clip-path="url(#pe80c149ea2)" d="M 1083.276743 837.335625 
L 1092.847927 837.335625 
L 1092.847927 837.335625 
L 1083.276743 837.335625 
z
" style="fill:#4c72b0;fill-opacity:0.75;stroke:#ffffff;stroke-linejoin:miter;stroke-width:0.957118;"/>
   </g>
   <g id="patch_106">
    <path clip-path="url(#pe80c149ea2)" d="M 1092.847927 837.335625 
L 1102.41911 837.335625 
L 1102.41911 837.335625 
L 1092.847927 837.335625 
z
" style="fill:#4c72b0;fill-opacity:0.75;stroke:#ffffff;stroke-linejoin:miter;stroke-width:0.957118;"/>
   </g>
   <g id="patch_107">
    <path clip-path="url(#pe80c149ea2)" d="M 1102.41911 837.335625 
L 1111.990294 837.335625 
L 1111.990294 837.335625 
L 1102.41911 837.335625 
z
" style="fill:#4c72b0;fill-opacity:0.75;stroke:#ffffff;stroke-linejoin:miter;stroke-width:0.957118;"/>
   </g>
   <g id="patch_108">
    <path clip-path="url(#pe80c149ea2)" d="M 1111.990294 837.335625 
L 1121.561477 837.335625 
L 1121.561477 832.106188 
L 1111.990294 832.106188 
z
" style="fill:#4c72b0;fill-opacity:0.75;stroke:#ffffff;stroke-linejoin:miter;stroke-width:0.957118;"/>
   </g>
   <g id="patch_109">
    <path d="M 56.28875 837.335625 
L 56.28875 21.935625 
" style="fill:none;stroke:#cccccc;stroke-linecap:square;stroke-linejoin:miter;stroke-width:1.25;"/>
   </g>
   <g id="patch_110">
    <path d="M 56.28875 837.335625 
L 1172.28875 837.335625 
" style="fill:none;stroke:#cccccc;stroke-linecap:square;stroke-linejoin:miter;stroke-width:1.25;"/>
   </g>
   <g id="text_18">
    <!-- Data Types Collected -->
    <g style="fill:#262626;" transform="translate(557.366562 15.935625)scale(0.12 -0.12)">
     <use xlink:href="#ArialMT-68"/>
     <use x="72.216797" xlink:href="#ArialMT-97"/>
     <use x="127.832031" xlink:href="#ArialMT-116"/>
     <use x="155.615234" xlink:href="#ArialMT-97"/>
     <use x="211.230469" xlink:href="#ArialMT-32"/>
     <use x="237.263672" xlink:href="#ArialMT-84"/>
     <use x="292.847656" xlink:href="#ArialMT-121"/>
     <use x="342.847656" xlink:href="#ArialMT-112"/>
     <use x="398.462891" xlink:href="#ArialMT-101"/>
     <use x="454.078125" xlink:href="#ArialMT-115"/>
     <use x="504.078125" xlink:href="#ArialMT-32"/>
     <use x="531.861328" xlink:href="#ArialMT-67"/>
     <use x="604.078125" xlink:href="#ArialMT-111"/>
     <use x="659.693359" xlink:href="#ArialMT-108"/>
     <use x="681.910156" xlink:href="#ArialMT-108"/>
     <use x="704.126953" xlink:href="#ArialMT-101"/>
     <use x="759.742188" xlink:href="#ArialMT-99"/>
     <use x="809.742188" xlink:href="#ArialMT-116"/>
     <use x="837.525391" xlink:href="#ArialMT-101"/>
     <use x="893.140625" xlink:href="#ArialMT-100"/>
    </g>
   </g>
  </g>
 </g>
 <defs>
  <clipPath id="pe80c149ea2">
   <rect height="815.4" width="1116" x="56.28875" y="21.935625"/>
  </clipPath>
 </defs>
</svg>
