<?xml version="1.0" encoding="utf-8" standalone="no"?>
<!DOCTYPE svg PUBLIC "-//W3C//DTD SVG 1.1//EN"
  "http://www.w3.org/Graphics/SVG/1.1/DTD/svg11.dtd">
<!-- Created with matplotlib (https://matplotlib.org/) -->
<svg height="879.356719pt" version="1.1" viewBox="0 0 1179.48875 879.356719" width="1179.48875pt" xmlns="http://www.w3.org/2000/svg" xmlns:xlink="http://www.w3.org/1999/xlink">
 <metadata>
  <rdf:RDF xmlns:cc="http://creativecommons.org/ns#" xmlns:dc="http://purl.org/dc/elements/1.1/" xmlns:rdf="http://www.w3.org/1999/02/22-rdf-syntax-ns#">
   <cc:Work>
    <dc:type rdf:resource="http://purl.org/dc/dcmitype/StillImage"/>
    <dc:date>2021-01-03T12:21:11.490122</dc:date>
    <dc:format>image/svg+xml</dc:format>
    <dc:creator>
     <cc:Agent>
      <dc:title>Matplotlib v3.3.3, https://matplotlib.org/</dc:title>
     </cc:Agent>
    </dc:creator>
   </cc:Work>
  </rdf:RDF>
 </metadata>
 <defs>
  <style type="text/css">*{stroke-linecap:butt;stroke-linejoin:round;}</style>
 </defs>
 <g id="figure_1">
  <g id="patch_1">
   <path d="M 0 879.356719 
L 1179.48875 879.356719 
L 1179.48875 0 
L 0 0 
z
" style="fill:#ffffff;"/>
  </g>
  <g id="axes_1">
   <g id="patch_2">
    <path d="M 56.28875 837.335625 
L 1172.28875 837.335625 
L 1172.28875 21.935625 
L 56.28875 21.935625 
z
" style="fill:#ffffff;"/>
   </g>
   <g id="matplotlib.axis_1">
    <g id="xtick_1">
     <g id="line2d_1">
      <path clip-path="url(#pa6bd74093c)" d="M 107.016023 837.335625 
L 107.016023 21.935625 
" style="fill:none;stroke:#cccccc;stroke-linecap:round;"/>
     </g>
     <g id="text_1">
      <!-- 0 -->
      <g style="fill:#262626;" transform="translate(103.957507 854.709219)scale(0.11 -0.11)">
       <defs>
        <path d="M 4.15625 35.296875 
Q 4.15625 48 6.765625 55.734375 
Q 9.375 63.484375 14.515625 67.671875 
Q 19.671875 71.875 27.484375 71.875 
Q 33.25 71.875 37.59375 69.546875 
Q 41.9375 67.234375 44.765625 62.859375 
Q 47.609375 58.5 49.21875 52.21875 
Q 50.828125 45.953125 50.828125 35.296875 
Q 50.828125 22.703125 48.234375 14.96875 
Q 45.65625 7.234375 40.5 3 
Q 35.359375 -1.21875 27.484375 -1.21875 
Q 17.140625 -1.21875 11.234375 6.203125 
Q 4.15625 15.140625 4.15625 35.296875 
z
M 13.1875 35.296875 
Q 13.1875 17.671875 17.3125 11.828125 
Q 21.4375 6 27.484375 6 
Q 33.546875 6 37.671875 11.859375 
Q 41.796875 17.71875 41.796875 35.296875 
Q 41.796875 52.984375 37.671875 58.78125 
Q 33.546875 64.59375 27.390625 64.59375 
Q 21.34375 64.59375 17.71875 59.46875 
Q 13.1875 52.9375 13.1875 35.296875 
z
" id="ArialMT-48"/>
       </defs>
       <use xlink:href="#ArialMT-48"/>
      </g>
     </g>
    </g>
    <g id="xtick_2">
     <g id="line2d_2">
      <path clip-path="url(#pa6bd74093c)" d="M 265.53875 837.335625 
L 265.53875 21.935625 
" style="fill:none;stroke:#cccccc;stroke-linecap:round;"/>
     </g>
     <g id="text_2">
      <!-- 20 -->
      <g style="fill:#262626;" transform="translate(259.421719 854.709219)scale(0.11 -0.11)">
       <defs>
        <path d="M 50.34375 8.453125 
L 50.34375 0 
L 3.03125 0 
Q 2.9375 3.171875 4.046875 6.109375 
Q 5.859375 10.9375 9.828125 15.625 
Q 13.8125 20.3125 21.34375 26.46875 
Q 33.015625 36.03125 37.109375 41.625 
Q 41.21875 47.21875 41.21875 52.203125 
Q 41.21875 57.421875 37.46875 61 
Q 33.734375 64.59375 27.734375 64.59375 
Q 21.390625 64.59375 17.578125 60.78125 
Q 13.765625 56.984375 13.71875 50.25 
L 4.6875 51.171875 
Q 5.609375 61.28125 11.65625 66.578125 
Q 17.71875 71.875 27.9375 71.875 
Q 38.234375 71.875 44.234375 66.15625 
Q 50.25 60.453125 50.25 52 
Q 50.25 47.703125 48.484375 43.546875 
Q 46.734375 39.40625 42.65625 34.8125 
Q 38.578125 30.21875 29.109375 22.21875 
Q 21.1875 15.578125 18.9375 13.203125 
Q 16.703125 10.84375 15.234375 8.453125 
z
" id="ArialMT-50"/>
       </defs>
       <use xlink:href="#ArialMT-50"/>
       <use x="55.615234" xlink:href="#ArialMT-48"/>
      </g>
     </g>
    </g>
    <g id="xtick_3">
     <g id="line2d_3">
      <path clip-path="url(#pa6bd74093c)" d="M 424.061477 837.335625 
L 424.061477 21.935625 
" style="fill:none;stroke:#cccccc;stroke-linecap:round;"/>
     </g>
     <g id="text_3">
      <!-- 40 -->
      <g style="fill:#262626;" transform="translate(417.944446 854.709219)scale(0.11 -0.11)">
       <defs>
        <path d="M 32.328125 0 
L 32.328125 17.140625 
L 1.265625 17.140625 
L 1.265625 25.203125 
L 33.9375 71.578125 
L 41.109375 71.578125 
L 41.109375 25.203125 
L 50.78125 25.203125 
L 50.78125 17.140625 
L 41.109375 17.140625 
L 41.109375 0 
z
M 32.328125 25.203125 
L 32.328125 57.46875 
L 9.90625 25.203125 
z
" id="ArialMT-52"/>
       </defs>
       <use xlink:href="#ArialMT-52"/>
       <use x="55.615234" xlink:href="#ArialMT-48"/>
      </g>
     </g>
    </g>
    <g id="xtick_4">
     <g id="line2d_4">
      <path clip-path="url(#pa6bd74093c)" d="M 582.584205 837.335625 
L 582.584205 21.935625 
" style="fill:none;stroke:#cccccc;stroke-linecap:round;"/>
     </g>
     <g id="text_4">
      <!-- 60 -->
      <g style="fill:#262626;" transform="translate(576.467173 854.709219)scale(0.11 -0.11)">
       <defs>
        <path d="M 49.75 54.046875 
L 41.015625 53.375 
Q 39.84375 58.546875 37.703125 60.890625 
Q 34.125 64.65625 28.90625 64.65625 
Q 24.703125 64.65625 21.53125 62.3125 
Q 17.390625 59.28125 14.984375 53.46875 
Q 12.59375 47.65625 12.5 36.921875 
Q 15.671875 41.75 20.265625 44.09375 
Q 24.859375 46.4375 29.890625 46.4375 
Q 38.671875 46.4375 44.84375 39.96875 
Q 51.03125 33.5 51.03125 23.25 
Q 51.03125 16.5 48.125 10.71875 
Q 45.21875 4.9375 40.140625 1.859375 
Q 35.0625 -1.21875 28.609375 -1.21875 
Q 17.625 -1.21875 10.6875 6.859375 
Q 3.765625 14.9375 3.765625 33.5 
Q 3.765625 54.25 11.421875 63.671875 
Q 18.109375 71.875 29.4375 71.875 
Q 37.890625 71.875 43.28125 67.140625 
Q 48.6875 62.40625 49.75 54.046875 
z
M 13.875 23.1875 
Q 13.875 18.65625 15.796875 14.5 
Q 17.71875 10.359375 21.1875 8.171875 
Q 24.65625 6 28.46875 6 
Q 34.03125 6 38.03125 10.484375 
Q 42.046875 14.984375 42.046875 22.703125 
Q 42.046875 30.125 38.078125 34.390625 
Q 34.125 38.671875 28.125 38.671875 
Q 22.171875 38.671875 18.015625 34.390625 
Q 13.875 30.125 13.875 23.1875 
z
" id="ArialMT-54"/>
       </defs>
       <use xlink:href="#ArialMT-54"/>
       <use x="55.615234" xlink:href="#ArialMT-48"/>
      </g>
     </g>
    </g>
    <g id="xtick_5">
     <g id="line2d_5">
      <path clip-path="url(#pa6bd74093c)" d="M 741.106932 837.335625 
L 741.106932 21.935625 
" style="fill:none;stroke:#cccccc;stroke-linecap:round;"/>
     </g>
     <g id="text_5">
      <!-- 80 -->
      <g style="fill:#262626;" transform="translate(734.989901 854.709219)scale(0.11 -0.11)">
       <defs>
        <path d="M 17.671875 38.8125 
Q 12.203125 40.828125 9.5625 44.53125 
Q 6.9375 48.25 6.9375 53.421875 
Q 6.9375 61.234375 12.546875 66.546875 
Q 18.171875 71.875 27.484375 71.875 
Q 36.859375 71.875 42.578125 66.421875 
Q 48.296875 60.984375 48.296875 53.171875 
Q 48.296875 48.1875 45.671875 44.5 
Q 43.0625 40.828125 37.75 38.8125 
Q 44.34375 36.671875 47.78125 31.875 
Q 51.21875 27.09375 51.21875 20.453125 
Q 51.21875 11.28125 44.71875 5.03125 
Q 38.234375 -1.21875 27.640625 -1.21875 
Q 17.046875 -1.21875 10.546875 5.046875 
Q 4.046875 11.328125 4.046875 20.703125 
Q 4.046875 27.6875 7.59375 32.390625 
Q 11.140625 37.109375 17.671875 38.8125 
z
M 15.921875 53.71875 
Q 15.921875 48.640625 19.1875 45.40625 
Q 22.46875 42.1875 27.6875 42.1875 
Q 32.765625 42.1875 36.015625 45.375 
Q 39.265625 48.578125 39.265625 53.21875 
Q 39.265625 58.0625 35.90625 61.359375 
Q 32.5625 64.65625 27.59375 64.65625 
Q 22.5625 64.65625 19.234375 61.421875 
Q 15.921875 58.203125 15.921875 53.71875 
z
M 13.09375 20.65625 
Q 13.09375 16.890625 14.875 13.375 
Q 16.65625 9.859375 20.171875 7.921875 
Q 23.6875 6 27.734375 6 
Q 34.03125 6 38.125 10.046875 
Q 42.234375 14.109375 42.234375 20.359375 
Q 42.234375 26.703125 38.015625 30.859375 
Q 33.796875 35.015625 27.4375 35.015625 
Q 21.234375 35.015625 17.15625 30.90625 
Q 13.09375 26.8125 13.09375 20.65625 
z
" id="ArialMT-56"/>
       </defs>
       <use xlink:href="#ArialMT-56"/>
       <use x="55.615234" xlink:href="#ArialMT-48"/>
      </g>
     </g>
    </g>
    <g id="xtick_6">
     <g id="line2d_6">
      <path clip-path="url(#pa6bd74093c)" d="M 899.629659 837.335625 
L 899.629659 21.935625 
" style="fill:none;stroke:#cccccc;stroke-linecap:round;"/>
     </g>
     <g id="text_6">
      <!-- 100 -->
      <g style="fill:#262626;" transform="translate(890.454112 854.709219)scale(0.11 -0.11)">
       <defs>
        <path d="M 37.25 0 
L 28.46875 0 
L 28.46875 56 
Q 25.296875 52.984375 20.140625 49.953125 
Q 14.984375 46.921875 10.890625 45.40625 
L 10.890625 53.90625 
Q 18.265625 57.375 23.78125 62.296875 
Q 29.296875 67.234375 31.59375 71.875 
L 37.25 71.875 
z
" id="ArialMT-49"/>
       </defs>
       <use xlink:href="#ArialMT-49"/>
       <use x="55.615234" xlink:href="#ArialMT-48"/>
       <use x="111.230469" xlink:href="#ArialMT-48"/>
      </g>
     </g>
    </g>
    <g id="xtick_7">
     <g id="line2d_7">
      <path clip-path="url(#pa6bd74093c)" d="M 1058.152386 837.335625 
L 1058.152386 21.935625 
" style="fill:none;stroke:#cccccc;stroke-linecap:round;"/>
     </g>
     <g id="text_7">
      <!-- 120 -->
      <g style="fill:#262626;" transform="translate(1048.976839 854.709219)scale(0.11 -0.11)">
       <use xlink:href="#ArialMT-49"/>
       <use x="55.615234" xlink:href="#ArialMT-50"/>
       <use x="111.230469" xlink:href="#ArialMT-48"/>
      </g>
     </g>
    </g>
    <g id="text_8">
     <!-- #Data Types Collected -->
     <g style="fill:#262626;" transform="translate(554.03 869.631094)scale(0.12 -0.12)">
      <defs>
       <path d="M 5.03125 -1.21875 
L 9.28125 19.578125 
L 1.03125 19.578125 
L 1.03125 26.859375 
L 10.75 26.859375 
L 14.359375 44.578125 
L 1.03125 44.578125 
L 1.03125 51.859375 
L 15.828125 51.859375 
L 20.0625 72.796875 
L 27.390625 72.796875 
L 23.140625 51.859375 
L 38.53125 51.859375 
L 42.78125 72.796875 
L 50.140625 72.796875 
L 45.90625 51.859375 
L 54.34375 51.859375 
L 54.34375 44.578125 
L 44.4375 44.578125 
L 40.765625 26.859375 
L 54.34375 26.859375 
L 54.34375 19.578125 
L 39.3125 19.578125 
L 35.0625 -1.21875 
L 27.734375 -1.21875 
L 31.9375 19.578125 
L 16.609375 19.578125 
L 12.359375 -1.21875 
z
M 18.0625 26.859375 
L 33.40625 26.859375 
L 37.0625 44.578125 
L 21.6875 44.578125 
z
" id="ArialMT-35"/>
       <path d="M 7.71875 0 
L 7.71875 71.578125 
L 32.375 71.578125 
Q 40.71875 71.578125 45.125 70.5625 
Q 51.265625 69.140625 55.609375 65.4375 
Q 61.28125 60.640625 64.078125 53.1875 
Q 66.890625 45.75 66.890625 36.1875 
Q 66.890625 28.03125 64.984375 21.734375 
Q 63.09375 15.4375 60.109375 11.296875 
Q 57.125 7.171875 53.578125 4.796875 
Q 50.046875 2.4375 45.046875 1.21875 
Q 40.046875 0 33.546875 0 
z
M 17.1875 8.453125 
L 32.46875 8.453125 
Q 39.546875 8.453125 43.578125 9.765625 
Q 47.609375 11.078125 50 13.484375 
Q 53.375 16.84375 55.25 22.53125 
Q 57.125 28.21875 57.125 36.328125 
Q 57.125 47.5625 53.4375 53.59375 
Q 49.75 59.625 44.484375 61.671875 
Q 40.671875 63.140625 32.234375 63.140625 
L 17.1875 63.140625 
z
" id="ArialMT-68"/>
       <path d="M 40.4375 6.390625 
Q 35.546875 2.25 31.03125 0.53125 
Q 26.515625 -1.171875 21.34375 -1.171875 
Q 12.796875 -1.171875 8.203125 3 
Q 3.609375 7.171875 3.609375 13.671875 
Q 3.609375 17.484375 5.34375 20.625 
Q 7.078125 23.78125 9.890625 25.6875 
Q 12.703125 27.59375 16.21875 28.5625 
Q 18.796875 29.25 24.03125 29.890625 
Q 34.671875 31.15625 39.703125 32.90625 
Q 39.75 34.71875 39.75 35.203125 
Q 39.75 40.578125 37.25 42.78125 
Q 33.890625 45.75 27.25 45.75 
Q 21.046875 45.75 18.09375 43.578125 
Q 15.140625 41.40625 13.71875 35.890625 
L 5.125 37.0625 
Q 6.296875 42.578125 8.984375 45.96875 
Q 11.671875 49.359375 16.75 51.1875 
Q 21.828125 53.03125 28.515625 53.03125 
Q 35.15625 53.03125 39.296875 51.46875 
Q 43.453125 49.90625 45.40625 47.53125 
Q 47.359375 45.171875 48.140625 41.546875 
Q 48.578125 39.3125 48.578125 33.453125 
L 48.578125 21.734375 
Q 48.578125 9.46875 49.140625 6.21875 
Q 49.703125 2.984375 51.375 0 
L 42.1875 0 
Q 40.828125 2.734375 40.4375 6.390625 
z
M 39.703125 26.03125 
Q 34.90625 24.078125 25.34375 22.703125 
Q 19.921875 21.921875 17.671875 20.9375 
Q 15.4375 19.96875 14.203125 18.09375 
Q 12.984375 16.21875 12.984375 13.921875 
Q 12.984375 10.40625 15.640625 8.0625 
Q 18.3125 5.71875 23.4375 5.71875 
Q 28.515625 5.71875 32.46875 7.9375 
Q 36.421875 10.15625 38.28125 14.015625 
Q 39.703125 17 39.703125 22.796875 
z
" id="ArialMT-97"/>
       <path d="M 25.78125 7.859375 
L 27.046875 0.09375 
Q 23.34375 -0.6875 20.40625 -0.6875 
Q 15.625 -0.6875 12.984375 0.828125 
Q 10.359375 2.34375 9.28125 4.8125 
Q 8.203125 7.28125 8.203125 15.1875 
L 8.203125 45.015625 
L 1.765625 45.015625 
L 1.765625 51.859375 
L 8.203125 51.859375 
L 8.203125 64.703125 
L 16.9375 69.96875 
L 16.9375 51.859375 
L 25.78125 51.859375 
L 25.78125 45.015625 
L 16.9375 45.015625 
L 16.9375 14.703125 
Q 16.9375 10.9375 17.40625 9.859375 
Q 17.875 8.796875 18.921875 8.15625 
Q 19.96875 7.515625 21.921875 7.515625 
Q 23.390625 7.515625 25.78125 7.859375 
z
" id="ArialMT-116"/>
       <path id="ArialMT-32"/>
       <path d="M 25.921875 0 
L 25.921875 63.140625 
L 2.34375 63.140625 
L 2.34375 71.578125 
L 59.078125 71.578125 
L 59.078125 63.140625 
L 35.40625 63.140625 
L 35.40625 0 
z
" id="ArialMT-84"/>
       <path d="M 6.203125 -19.96875 
L 5.21875 -11.71875 
Q 8.109375 -12.5 10.25 -12.5 
Q 13.1875 -12.5 14.9375 -11.515625 
Q 16.703125 -10.546875 17.828125 -8.796875 
Q 18.65625 -7.46875 20.515625 -2.25 
Q 20.75 -1.515625 21.296875 -0.09375 
L 1.609375 51.859375 
L 11.078125 51.859375 
L 21.875 21.828125 
Q 23.96875 16.109375 25.640625 9.8125 
Q 27.15625 15.875 29.25 21.625 
L 40.328125 51.859375 
L 49.125 51.859375 
L 29.390625 -0.875 
Q 26.21875 -9.421875 24.46875 -12.640625 
Q 22.125 -17 19.09375 -19.015625 
Q 16.0625 -21.046875 11.859375 -21.046875 
Q 9.328125 -21.046875 6.203125 -19.96875 
z
" id="ArialMT-121"/>
       <path d="M 6.59375 -19.875 
L 6.59375 51.859375 
L 14.59375 51.859375 
L 14.59375 45.125 
Q 17.4375 49.078125 21 51.046875 
Q 24.5625 53.03125 29.640625 53.03125 
Q 36.28125 53.03125 41.359375 49.609375 
Q 46.4375 46.1875 49.015625 39.953125 
Q 51.609375 33.734375 51.609375 26.3125 
Q 51.609375 18.359375 48.75 11.984375 
Q 45.90625 5.609375 40.453125 2.21875 
Q 35.015625 -1.171875 29 -1.171875 
Q 24.609375 -1.171875 21.109375 0.6875 
Q 17.625 2.546875 15.375 5.375 
L 15.375 -19.875 
z
M 14.546875 25.640625 
Q 14.546875 15.625 18.59375 10.84375 
Q 22.65625 6.0625 28.421875 6.0625 
Q 34.28125 6.0625 38.453125 11.015625 
Q 42.625 15.96875 42.625 26.375 
Q 42.625 36.28125 38.546875 41.203125 
Q 34.46875 46.140625 28.8125 46.140625 
Q 23.1875 46.140625 18.859375 40.890625 
Q 14.546875 35.640625 14.546875 25.640625 
z
" id="ArialMT-112"/>
       <path d="M 42.09375 16.703125 
L 51.171875 15.578125 
Q 49.03125 7.625 43.21875 3.21875 
Q 37.40625 -1.171875 28.375 -1.171875 
Q 17 -1.171875 10.328125 5.828125 
Q 3.65625 12.84375 3.65625 25.484375 
Q 3.65625 38.578125 10.390625 45.796875 
Q 17.140625 53.03125 27.875 53.03125 
Q 38.28125 53.03125 44.875 45.953125 
Q 51.46875 38.875 51.46875 26.03125 
Q 51.46875 25.25 51.421875 23.6875 
L 12.75 23.6875 
Q 13.234375 15.140625 17.578125 10.59375 
Q 21.921875 6.0625 28.421875 6.0625 
Q 33.25 6.0625 36.671875 8.59375 
Q 40.09375 11.140625 42.09375 16.703125 
z
M 13.234375 30.90625 
L 42.1875 30.90625 
Q 41.609375 37.453125 38.875 40.71875 
Q 34.671875 45.796875 27.984375 45.796875 
Q 21.921875 45.796875 17.796875 41.75 
Q 13.671875 37.703125 13.234375 30.90625 
z
" id="ArialMT-101"/>
       <path d="M 3.078125 15.484375 
L 11.765625 16.84375 
Q 12.5 11.625 15.84375 8.84375 
Q 19.1875 6.0625 25.203125 6.0625 
Q 31.25 6.0625 34.171875 8.515625 
Q 37.109375 10.984375 37.109375 14.3125 
Q 37.109375 17.28125 34.515625 19 
Q 32.71875 20.171875 25.53125 21.96875 
Q 15.875 24.421875 12.140625 26.203125 
Q 8.40625 27.984375 6.46875 31.125 
Q 4.546875 34.28125 4.546875 38.09375 
Q 4.546875 41.546875 6.125 44.5 
Q 7.71875 47.46875 10.453125 49.421875 
Q 12.5 50.921875 16.03125 51.96875 
Q 19.578125 53.03125 23.640625 53.03125 
Q 29.734375 53.03125 34.34375 51.265625 
Q 38.96875 49.515625 41.15625 46.5 
Q 43.359375 43.5 44.1875 38.484375 
L 35.59375 37.3125 
Q 35.015625 41.3125 32.203125 43.546875 
Q 29.390625 45.796875 24.265625 45.796875 
Q 18.21875 45.796875 15.625 43.796875 
Q 13.03125 41.796875 13.03125 39.109375 
Q 13.03125 37.40625 14.109375 36.03125 
Q 15.1875 34.625 17.484375 33.6875 
Q 18.796875 33.203125 25.25 31.453125 
Q 34.578125 28.953125 38.25 27.359375 
Q 41.9375 25.78125 44.03125 22.75 
Q 46.140625 19.734375 46.140625 15.234375 
Q 46.140625 10.84375 43.578125 6.953125 
Q 41.015625 3.078125 36.171875 0.953125 
Q 31.34375 -1.171875 25.25 -1.171875 
Q 15.140625 -1.171875 9.84375 3.03125 
Q 4.546875 7.234375 3.078125 15.484375 
z
" id="ArialMT-115"/>
       <path d="M 58.796875 25.09375 
L 68.265625 22.703125 
Q 65.28125 11.03125 57.546875 4.90625 
Q 49.8125 -1.21875 38.625 -1.21875 
Q 27.046875 -1.21875 19.796875 3.484375 
Q 12.546875 8.203125 8.765625 17.140625 
Q 4.984375 26.078125 4.984375 36.328125 
Q 4.984375 47.515625 9.25 55.828125 
Q 13.53125 64.15625 21.40625 68.46875 
Q 29.296875 72.796875 38.765625 72.796875 
Q 49.515625 72.796875 56.828125 67.328125 
Q 64.15625 61.859375 67.046875 51.953125 
L 57.71875 49.75 
Q 55.21875 57.5625 50.484375 61.125 
Q 45.75 64.703125 38.578125 64.703125 
Q 30.328125 64.703125 24.78125 60.734375 
Q 19.234375 56.78125 16.984375 50.109375 
Q 14.75 43.453125 14.75 36.375 
Q 14.75 27.25 17.40625 20.4375 
Q 20.0625 13.625 25.671875 10.25 
Q 31.296875 6.890625 37.84375 6.890625 
Q 45.796875 6.890625 51.3125 11.46875 
Q 56.84375 16.0625 58.796875 25.09375 
z
" id="ArialMT-67"/>
       <path d="M 3.328125 25.921875 
Q 3.328125 40.328125 11.328125 47.265625 
Q 18.015625 53.03125 27.640625 53.03125 
Q 38.328125 53.03125 45.109375 46.015625 
Q 51.90625 39.015625 51.90625 26.65625 
Q 51.90625 16.65625 48.90625 10.90625 
Q 45.90625 5.171875 40.15625 2 
Q 34.421875 -1.171875 27.640625 -1.171875 
Q 16.75 -1.171875 10.03125 5.8125 
Q 3.328125 12.796875 3.328125 25.921875 
z
M 12.359375 25.921875 
Q 12.359375 15.96875 16.703125 11.015625 
Q 21.046875 6.0625 27.640625 6.0625 
Q 34.1875 6.0625 38.53125 11.03125 
Q 42.875 16.015625 42.875 26.21875 
Q 42.875 35.84375 38.5 40.796875 
Q 34.125 45.75 27.640625 45.75 
Q 21.046875 45.75 16.703125 40.8125 
Q 12.359375 35.890625 12.359375 25.921875 
z
" id="ArialMT-111"/>
       <path d="M 6.390625 0 
L 6.390625 71.578125 
L 15.1875 71.578125 
L 15.1875 0 
z
" id="ArialMT-108"/>
       <path d="M 40.4375 19 
L 49.078125 17.875 
Q 47.65625 8.9375 41.8125 3.875 
Q 35.984375 -1.171875 27.484375 -1.171875 
Q 16.84375 -1.171875 10.375 5.78125 
Q 3.90625 12.75 3.90625 25.734375 
Q 3.90625 34.125 6.6875 40.421875 
Q 9.46875 46.734375 15.15625 49.875 
Q 20.84375 53.03125 27.546875 53.03125 
Q 35.984375 53.03125 41.359375 48.75 
Q 46.734375 44.484375 48.25 36.625 
L 39.703125 35.296875 
Q 38.484375 40.53125 35.375 43.15625 
Q 32.28125 45.796875 27.875 45.796875 
Q 21.234375 45.796875 17.078125 41.03125 
Q 12.9375 36.28125 12.9375 25.984375 
Q 12.9375 15.53125 16.9375 10.796875 
Q 20.953125 6.0625 27.390625 6.0625 
Q 32.5625 6.0625 36.03125 9.234375 
Q 39.5 12.40625 40.4375 19 
z
" id="ArialMT-99"/>
       <path d="M 40.234375 0 
L 40.234375 6.546875 
Q 35.296875 -1.171875 25.734375 -1.171875 
Q 19.53125 -1.171875 14.328125 2.25 
Q 9.125 5.671875 6.265625 11.796875 
Q 3.421875 17.921875 3.421875 25.875 
Q 3.421875 33.640625 6 39.96875 
Q 8.59375 46.296875 13.765625 49.65625 
Q 18.953125 53.03125 25.34375 53.03125 
Q 30.03125 53.03125 33.6875 51.046875 
Q 37.359375 49.078125 39.65625 45.90625 
L 39.65625 71.578125 
L 48.390625 71.578125 
L 48.390625 0 
z
M 12.453125 25.875 
Q 12.453125 15.921875 16.640625 10.984375 
Q 20.84375 6.0625 26.5625 6.0625 
Q 32.328125 6.0625 36.34375 10.765625 
Q 40.375 15.484375 40.375 25.140625 
Q 40.375 35.796875 36.265625 40.765625 
Q 32.171875 45.75 26.171875 45.75 
Q 20.3125 45.75 16.375 40.96875 
Q 12.453125 36.1875 12.453125 25.875 
z
" id="ArialMT-100"/>
      </defs>
      <use xlink:href="#ArialMT-35"/>
      <use x="55.615234" xlink:href="#ArialMT-68"/>
      <use x="127.832031" xlink:href="#ArialMT-97"/>
      <use x="183.447266" xlink:href="#ArialMT-116"/>
      <use x="211.230469" xlink:href="#ArialMT-97"/>
      <use x="266.845703" xlink:href="#ArialMT-32"/>
      <use x="292.878906" xlink:href="#ArialMT-84"/>
      <use x="348.462891" xlink:href="#ArialMT-121"/>
      <use x="398.462891" xlink:href="#ArialMT-112"/>
      <use x="454.078125" xlink:href="#ArialMT-101"/>
      <use x="509.693359" xlink:href="#ArialMT-115"/>
      <use x="559.693359" xlink:href="#ArialMT-32"/>
      <use x="587.476562" xlink:href="#ArialMT-67"/>
      <use x="659.693359" xlink:href="#ArialMT-111"/>
      <use x="715.308594" xlink:href="#ArialMT-108"/>
      <use x="737.525391" xlink:href="#ArialMT-108"/>
      <use x="759.742188" xlink:href="#ArialMT-101"/>
      <use x="815.357422" xlink:href="#ArialMT-99"/>
      <use x="865.357422" xlink:href="#ArialMT-116"/>
      <use x="893.140625" xlink:href="#ArialMT-101"/>
      <use x="948.755859" xlink:href="#ArialMT-100"/>
     </g>
    </g>
   </g>
   <g id="matplotlib.axis_2">
    <g id="ytick_1">
     <g id="line2d_8">
      <path clip-path="url(#pa6bd74093c)" d="M 56.28875 837.335625 
L 1172.28875 837.335625 
" style="fill:none;stroke:#cccccc;stroke-linecap:round;"/>
     </g>
     <g id="text_9">
      <!-- 0 -->
      <g style="fill:#262626;" transform="translate(40.671719 841.272422)scale(0.11 -0.11)">
       <use xlink:href="#ArialMT-48"/>
      </g>
     </g>
    </g>
    <g id="ytick_2">
     <g id="line2d_9">
      <path clip-path="url(#pa6bd74093c)" d="M 56.28875 745.106239 
L 1172.28875 745.106239 
" style="fill:none;stroke:#cccccc;stroke-linecap:round;"/>
     </g>
     <g id="text_10">
      <!-- 200 -->
      <g style="fill:#262626;" transform="translate(28.437656 749.043036)scale(0.11 -0.11)">
       <use xlink:href="#ArialMT-50"/>
       <use x="55.615234" xlink:href="#ArialMT-48"/>
       <use x="111.230469" xlink:href="#ArialMT-48"/>
      </g>
     </g>
    </g>
    <g id="ytick_3">
     <g id="line2d_10">
      <path clip-path="url(#pa6bd74093c)" d="M 56.28875 652.876853 
L 1172.28875 652.876853 
" style="fill:none;stroke:#cccccc;stroke-linecap:round;"/>
     </g>
     <g id="text_11">
      <!-- 400 -->
      <g style="fill:#262626;" transform="translate(28.437656 656.81365)scale(0.11 -0.11)">
       <use xlink:href="#ArialMT-52"/>
       <use x="55.615234" xlink:href="#ArialMT-48"/>
       <use x="111.230469" xlink:href="#ArialMT-48"/>
      </g>
     </g>
    </g>
    <g id="ytick_4">
     <g id="line2d_11">
      <path clip-path="url(#pa6bd74093c)" d="M 56.28875 560.647468 
L 1172.28875 560.647468 
" style="fill:none;stroke:#cccccc;stroke-linecap:round;"/>
     </g>
     <g id="text_12">
      <!-- 600 -->
      <g style="fill:#262626;" transform="translate(28.437656 564.584264)scale(0.11 -0.11)">
       <use xlink:href="#ArialMT-54"/>
       <use x="55.615234" xlink:href="#ArialMT-48"/>
       <use x="111.230469" xlink:href="#ArialMT-48"/>
      </g>
     </g>
    </g>
    <g id="ytick_5">
     <g id="line2d_12">
      <path clip-path="url(#pa6bd74093c)" d="M 56.28875 468.418082 
L 1172.28875 468.418082 
" style="fill:none;stroke:#cccccc;stroke-linecap:round;"/>
     </g>
     <g id="text_13">
      <!-- 800 -->
      <g style="fill:#262626;" transform="translate(28.437656 472.354879)scale(0.11 -0.11)">
       <use xlink:href="#ArialMT-56"/>
       <use x="55.615234" xlink:href="#ArialMT-48"/>
       <use x="111.230469" xlink:href="#ArialMT-48"/>
      </g>
     </g>
    </g>
    <g id="ytick_6">
     <g id="line2d_13">
      <path clip-path="url(#pa6bd74093c)" d="M 56.28875 376.188696 
L 1172.28875 376.188696 
" style="fill:none;stroke:#cccccc;stroke-linecap:round;"/>
     </g>
     <g id="text_14">
      <!-- 1000 -->
      <g style="fill:#262626;" transform="translate(22.320625 380.125493)scale(0.11 -0.11)">
       <use xlink:href="#ArialMT-49"/>
       <use x="55.615234" xlink:href="#ArialMT-48"/>
       <use x="111.230469" xlink:href="#ArialMT-48"/>
       <use x="166.845703" xlink:href="#ArialMT-48"/>
      </g>
     </g>
    </g>
    <g id="ytick_7">
     <g id="line2d_14">
      <path clip-path="url(#pa6bd74093c)" d="M 56.28875 283.95931 
L 1172.28875 283.95931 
" style="fill:none;stroke:#cccccc;stroke-linecap:round;"/>
     </g>
     <g id="text_15">
      <!-- 1200 -->
      <g style="fill:#262626;" transform="translate(22.320625 287.896107)scale(0.11 -0.11)">
       <use xlink:href="#ArialMT-49"/>
       <use x="55.615234" xlink:href="#ArialMT-50"/>
       <use x="111.230469" xlink:href="#ArialMT-48"/>
       <use x="166.845703" xlink:href="#ArialMT-48"/>
      </g>
     </g>
    </g>
    <g id="ytick_8">
     <g id="line2d_15">
      <path clip-path="url(#pa6bd74093c)" d="M 56.28875 191.729924 
L 1172.28875 191.729924 
" style="fill:none;stroke:#cccccc;stroke-linecap:round;"/>
     </g>
     <g id="text_16">
      <!-- 1400 -->
      <g style="fill:#262626;" transform="translate(22.320625 195.666721)scale(0.11 -0.11)">
       <use xlink:href="#ArialMT-49"/>
       <use x="55.615234" xlink:href="#ArialMT-52"/>
       <use x="111.230469" xlink:href="#ArialMT-48"/>
       <use x="166.845703" xlink:href="#ArialMT-48"/>
      </g>
     </g>
    </g>
    <g id="ytick_9">
     <g id="line2d_16">
      <path clip-path="url(#pa6bd74093c)" d="M 56.28875 99.500538 
L 1172.28875 99.500538 
" style="fill:none;stroke:#cccccc;stroke-linecap:round;"/>
     </g>
     <g id="text_17">
      <!-- 1600 -->
      <g style="fill:#262626;" transform="translate(22.320625 103.437335)scale(0.11 -0.11)">
       <use xlink:href="#ArialMT-49"/>
       <use x="55.615234" xlink:href="#ArialMT-54"/>
       <use x="111.230469" xlink:href="#ArialMT-48"/>
       <use x="166.845703" xlink:href="#ArialMT-48"/>
      </g>
     </g>
    </g>
    <g id="text_18">
     <!-- #Apps -->
     <g style="fill:#262626;" transform="translate(15.935625 446.6475)rotate(-90)scale(0.12 -0.12)">
      <defs>
       <path d="M -0.140625 0 
L 27.34375 71.578125 
L 37.546875 71.578125 
L 66.84375 0 
L 56.0625 0 
L 47.703125 21.6875 
L 17.78125 21.6875 
L 9.90625 0 
z
M 20.515625 29.390625 
L 44.78125 29.390625 
L 37.3125 49.21875 
Q 33.890625 58.25 32.234375 64.0625 
Q 30.859375 57.171875 28.375 50.390625 
z
" id="ArialMT-65"/>
      </defs>
      <use xlink:href="#ArialMT-35"/>
      <use x="55.615234" xlink:href="#ArialMT-65"/>
      <use x="122.314453" xlink:href="#ArialMT-112"/>
      <use x="177.929688" xlink:href="#ArialMT-112"/>
      <use x="233.544922" xlink:href="#ArialMT-115"/>
     </g>
    </g>
   </g>
   <g id="patch_3">
    <path clip-path="url(#pa6bd74093c)" d="M 107.016023 837.335625 
L 116.865979 837.335625 
L 116.865979 60.764196 
L 107.016023 60.764196 
z
" style="fill:#4c72b0;fill-opacity:0.75;stroke:#ffffff;stroke-linejoin:miter;stroke-width:0.984996;"/>
   </g>
   <g id="patch_4">
    <path clip-path="url(#pa6bd74093c)" d="M 116.865979 837.335625 
L 126.715934 837.335625 
L 126.715934 792.143226 
L 116.865979 792.143226 
z
" style="fill:#4c72b0;fill-opacity:0.75;stroke:#ffffff;stroke-linejoin:miter;stroke-width:0.984996;"/>
   </g>
   <g id="patch_5">
    <path clip-path="url(#pa6bd74093c)" d="M 126.715934 837.335625 
L 136.56589 837.335625 
L 136.56589 796.293548 
L 126.715934 796.293548 
z
" style="fill:#4c72b0;fill-opacity:0.75;stroke:#ffffff;stroke-linejoin:miter;stroke-width:0.984996;"/>
   </g>
   <g id="patch_6">
    <path clip-path="url(#pa6bd74093c)" d="M 136.56589 837.335625 
L 146.415846 837.335625 
L 146.415846 790.759785 
L 136.56589 790.759785 
z
" style="fill:#4c72b0;fill-opacity:0.75;stroke:#ffffff;stroke-linejoin:miter;stroke-width:0.984996;"/>
   </g>
   <g id="patch_7">
    <path clip-path="url(#pa6bd74093c)" d="M 146.415846 837.335625 
L 156.265802 837.335625 
L 156.265802 760.785235 
L 146.415846 760.785235 
z
" style="fill:#4c72b0;fill-opacity:0.75;stroke:#ffffff;stroke-linejoin:miter;stroke-width:0.984996;"/>
   </g>
   <g id="patch_8">
    <path clip-path="url(#pa6bd74093c)" d="M 156.265802 837.335625 
L 166.115758 837.335625 
L 166.115758 815.200572 
L 156.265802 815.200572 
z
" style="fill:#4c72b0;fill-opacity:0.75;stroke:#ffffff;stroke-linejoin:miter;stroke-width:0.984996;"/>
   </g>
   <g id="patch_9">
    <path clip-path="url(#pa6bd74093c)" d="M 166.115758 837.335625 
L 175.965714 837.335625 
L 175.965714 805.05534 
L 166.115758 805.05534 
z
" style="fill:#4c72b0;fill-opacity:0.75;stroke:#ffffff;stroke-linejoin:miter;stroke-width:0.984996;"/>
   </g>
   <g id="patch_10">
    <path clip-path="url(#pa6bd74093c)" d="M 175.965714 837.335625 
L 185.81567 837.335625 
L 185.81567 813.355985 
L 175.965714 813.355985 
z
" style="fill:#4c72b0;fill-opacity:0.75;stroke:#ffffff;stroke-linejoin:miter;stroke-width:0.984996;"/>
   </g>
   <g id="patch_11">
    <path clip-path="url(#pa6bd74093c)" d="M 185.81567 837.335625 
L 195.665626 837.335625 
L 195.665626 793.987814 
L 185.81567 793.987814 
z
" style="fill:#4c72b0;fill-opacity:0.75;stroke:#ffffff;stroke-linejoin:miter;stroke-width:0.984996;"/>
   </g>
   <g id="patch_12">
    <path clip-path="url(#pa6bd74093c)" d="M 195.665626 837.335625 
L 205.515581 837.335625 
L 205.515581 816.584013 
L 195.665626 816.584013 
z
" style="fill:#4c72b0;fill-opacity:0.75;stroke:#ffffff;stroke-linejoin:miter;stroke-width:0.984996;"/>
   </g>
   <g id="patch_13">
    <path clip-path="url(#pa6bd74093c)" d="M 205.515581 837.335625 
L 215.365537 837.335625 
L 215.365537 806.899928 
L 205.515581 806.899928 
z
" style="fill:#4c72b0;fill-opacity:0.75;stroke:#ffffff;stroke-linejoin:miter;stroke-width:0.984996;"/>
   </g>
   <g id="patch_14">
    <path clip-path="url(#pa6bd74093c)" d="M 215.365537 837.335625 
L 225.215493 837.335625 
L 225.215493 817.967454 
L 215.365537 817.967454 
z
" style="fill:#4c72b0;fill-opacity:0.75;stroke:#ffffff;stroke-linejoin:miter;stroke-width:0.984996;"/>
   </g>
   <g id="patch_15">
    <path clip-path="url(#pa6bd74093c)" d="M 225.215493 837.335625 
L 235.065449 837.335625 
L 235.065449 795.371254 
L 225.215493 795.371254 
z
" style="fill:#4c72b0;fill-opacity:0.75;stroke:#ffffff;stroke-linejoin:miter;stroke-width:0.984996;"/>
   </g>
   <g id="patch_16">
    <path clip-path="url(#pa6bd74093c)" d="M 235.065449 837.335625 
L 244.915405 837.335625 
L 244.915405 822.117776 
L 235.065449 822.117776 
z
" style="fill:#4c72b0;fill-opacity:0.75;stroke:#ffffff;stroke-linejoin:miter;stroke-width:0.984996;"/>
   </g>
   <g id="patch_17">
    <path clip-path="url(#pa6bd74093c)" d="M 244.915405 837.335625 
L 254.765361 837.335625 
L 254.765361 823.04007 
L 244.915405 823.04007 
z
" style="fill:#4c72b0;fill-opacity:0.75;stroke:#ffffff;stroke-linejoin:miter;stroke-width:0.984996;"/>
   </g>
   <g id="patch_18">
    <path clip-path="url(#pa6bd74093c)" d="M 254.765361 837.335625 
L 264.615317 837.335625 
L 264.615317 828.573833 
L 254.765361 828.573833 
z
" style="fill:#4c72b0;fill-opacity:0.75;stroke:#ffffff;stroke-linejoin:miter;stroke-width:0.984996;"/>
   </g>
   <g id="patch_19">
    <path clip-path="url(#pa6bd74093c)" d="M 264.615317 837.335625 
L 274.465273 837.335625 
L 274.465273 815.200572 
L 264.615317 815.200572 
z
" style="fill:#4c72b0;fill-opacity:0.75;stroke:#ffffff;stroke-linejoin:miter;stroke-width:0.984996;"/>
   </g>
   <g id="patch_20">
    <path clip-path="url(#pa6bd74093c)" d="M 274.465273 837.335625 
L 284.315228 837.335625 
L 284.315228 827.651539 
L 274.465273 827.651539 
z
" style="fill:#4c72b0;fill-opacity:0.75;stroke:#ffffff;stroke-linejoin:miter;stroke-width:0.984996;"/>
   </g>
   <g id="patch_21">
    <path clip-path="url(#pa6bd74093c)" d="M 284.315228 837.335625 
L 294.165184 837.335625 
L 294.165184 829.496127 
L 284.315228 829.496127 
z
" style="fill:#4c72b0;fill-opacity:0.75;stroke:#ffffff;stroke-linejoin:miter;stroke-width:0.984996;"/>
   </g>
   <g id="patch_22">
    <path clip-path="url(#pa6bd74093c)" d="M 294.165184 837.335625 
L 304.01514 837.335625 
L 304.01514 828.573833 
L 294.165184 828.573833 
z
" style="fill:#4c72b0;fill-opacity:0.75;stroke:#ffffff;stroke-linejoin:miter;stroke-width:0.984996;"/>
   </g>
   <g id="patch_23">
    <path clip-path="url(#pa6bd74093c)" d="M 304.01514 837.335625 
L 313.865096 837.335625 
L 313.865096 824.884658 
L 304.01514 824.884658 
z
" style="fill:#4c72b0;fill-opacity:0.75;stroke:#ffffff;stroke-linejoin:miter;stroke-width:0.984996;"/>
   </g>
   <g id="patch_24">
    <path clip-path="url(#pa6bd74093c)" d="M 313.865096 837.335625 
L 323.715052 837.335625 
L 323.715052 833.64645 
L 313.865096 833.64645 
z
" style="fill:#4c72b0;fill-opacity:0.75;stroke:#ffffff;stroke-linejoin:miter;stroke-width:0.984996;"/>
   </g>
   <g id="patch_25">
    <path clip-path="url(#pa6bd74093c)" d="M 323.715052 837.335625 
L 333.565008 837.335625 
L 333.565008 831.801862 
L 323.715052 831.801862 
z
" style="fill:#4c72b0;fill-opacity:0.75;stroke:#ffffff;stroke-linejoin:miter;stroke-width:0.984996;"/>
   </g>
   <g id="patch_26">
    <path clip-path="url(#pa6bd74093c)" d="M 333.565008 837.335625 
L 343.414964 837.335625 
L 343.414964 832.263009 
L 333.565008 832.263009 
z
" style="fill:#4c72b0;fill-opacity:0.75;stroke:#ffffff;stroke-linejoin:miter;stroke-width:0.984996;"/>
   </g>
   <g id="patch_27">
    <path clip-path="url(#pa6bd74093c)" d="M 343.414964 837.335625 
L 353.264919 837.335625 
L 353.264919 825.806952 
L 343.414964 825.806952 
z
" style="fill:#4c72b0;fill-opacity:0.75;stroke:#ffffff;stroke-linejoin:miter;stroke-width:0.984996;"/>
   </g>
   <g id="patch_28">
    <path clip-path="url(#pa6bd74093c)" d="M 353.264919 837.335625 
L 363.114875 837.335625 
L 363.114875 831.801862 
L 353.264919 831.801862 
z
" style="fill:#4c72b0;fill-opacity:0.75;stroke:#ffffff;stroke-linejoin:miter;stroke-width:0.984996;"/>
   </g>
   <g id="patch_29">
    <path clip-path="url(#pa6bd74093c)" d="M 363.114875 837.335625 
L 372.964831 837.335625 
L 372.964831 834.107596 
L 363.114875 834.107596 
z
" style="fill:#4c72b0;fill-opacity:0.75;stroke:#ffffff;stroke-linejoin:miter;stroke-width:0.984996;"/>
   </g>
   <g id="patch_30">
    <path clip-path="url(#pa6bd74093c)" d="M 372.964831 837.335625 
L 382.814787 837.335625 
L 382.814787 834.107596 
L 372.964831 834.107596 
z
" style="fill:#4c72b0;fill-opacity:0.75;stroke:#ffffff;stroke-linejoin:miter;stroke-width:0.984996;"/>
   </g>
   <g id="patch_31">
    <path clip-path="url(#pa6bd74093c)" d="M 382.814787 837.335625 
L 392.664743 837.335625 
L 392.664743 830.418421 
L 382.814787 830.418421 
z
" style="fill:#4c72b0;fill-opacity:0.75;stroke:#ffffff;stroke-linejoin:miter;stroke-width:0.984996;"/>
   </g>
   <g id="patch_32">
    <path clip-path="url(#pa6bd74093c)" d="M 392.664743 837.335625 
L 402.514699 837.335625 
L 402.514699 835.491037 
L 392.664743 835.491037 
z
" style="fill:#4c72b0;fill-opacity:0.75;stroke:#ffffff;stroke-linejoin:miter;stroke-width:0.984996;"/>
   </g>
   <g id="patch_33">
    <path clip-path="url(#pa6bd74093c)" d="M 402.514699 837.335625 
L 412.364655 837.335625 
L 412.364655 833.64645 
L 402.514699 833.64645 
z
" style="fill:#4c72b0;fill-opacity:0.75;stroke:#ffffff;stroke-linejoin:miter;stroke-width:0.984996;"/>
   </g>
   <g id="patch_34">
    <path clip-path="url(#pa6bd74093c)" d="M 412.364655 837.335625 
L 422.214611 837.335625 
L 422.214611 833.64645 
L 412.364655 833.64645 
z
" style="fill:#4c72b0;fill-opacity:0.75;stroke:#ffffff;stroke-linejoin:miter;stroke-width:0.984996;"/>
   </g>
   <g id="patch_35">
    <path clip-path="url(#pa6bd74093c)" d="M 422.214611 837.335625 
L 432.064566 837.335625 
L 432.064566 834.568743 
L 422.214611 834.568743 
z
" style="fill:#4c72b0;fill-opacity:0.75;stroke:#ffffff;stroke-linejoin:miter;stroke-width:0.984996;"/>
   </g>
   <g id="patch_36">
    <path clip-path="url(#pa6bd74093c)" d="M 432.064566 837.335625 
L 441.914522 837.335625 
L 441.914522 835.952184 
L 432.064566 835.952184 
z
" style="fill:#4c72b0;fill-opacity:0.75;stroke:#ffffff;stroke-linejoin:miter;stroke-width:0.984996;"/>
   </g>
   <g id="patch_37">
    <path clip-path="url(#pa6bd74093c)" d="M 441.914522 837.335625 
L 451.764478 837.335625 
L 451.764478 836.413331 
L 441.914522 836.413331 
z
" style="fill:#4c72b0;fill-opacity:0.75;stroke:#ffffff;stroke-linejoin:miter;stroke-width:0.984996;"/>
   </g>
   <g id="patch_38">
    <path clip-path="url(#pa6bd74093c)" d="M 451.764478 837.335625 
L 461.614434 837.335625 
L 461.614434 836.874478 
L 451.764478 836.874478 
z
" style="fill:#4c72b0;fill-opacity:0.75;stroke:#ffffff;stroke-linejoin:miter;stroke-width:0.984996;"/>
   </g>
   <g id="patch_39">
    <path clip-path="url(#pa6bd74093c)" d="M 461.614434 837.335625 
L 471.46439 837.335625 
L 471.46439 836.874478 
L 461.614434 836.874478 
z
" style="fill:#4c72b0;fill-opacity:0.75;stroke:#ffffff;stroke-linejoin:miter;stroke-width:0.984996;"/>
   </g>
   <g id="patch_40">
    <path clip-path="url(#pa6bd74093c)" d="M 471.46439 837.335625 
L 481.314346 837.335625 
L 481.314346 834.107596 
L 471.46439 834.107596 
z
" style="fill:#4c72b0;fill-opacity:0.75;stroke:#ffffff;stroke-linejoin:miter;stroke-width:0.984996;"/>
   </g>
   <g id="patch_41">
    <path clip-path="url(#pa6bd74093c)" d="M 481.314346 837.335625 
L 491.164302 837.335625 
L 491.164302 836.874478 
L 481.314346 836.874478 
z
" style="fill:#4c72b0;fill-opacity:0.75;stroke:#ffffff;stroke-linejoin:miter;stroke-width:0.984996;"/>
   </g>
   <g id="patch_42">
    <path clip-path="url(#pa6bd74093c)" d="M 491.164302 837.335625 
L 501.014258 837.335625 
L 501.014258 836.413331 
L 491.164302 836.413331 
z
" style="fill:#4c72b0;fill-opacity:0.75;stroke:#ffffff;stroke-linejoin:miter;stroke-width:0.984996;"/>
   </g>
   <g id="patch_43">
    <path clip-path="url(#pa6bd74093c)" d="M 501.014258 837.335625 
L 510.864213 837.335625 
L 510.864213 836.874478 
L 501.014258 836.874478 
z
" style="fill:#4c72b0;fill-opacity:0.75;stroke:#ffffff;stroke-linejoin:miter;stroke-width:0.984996;"/>
   </g>
   <g id="patch_44">
    <path clip-path="url(#pa6bd74093c)" d="M 510.864213 837.335625 
L 520.714169 837.335625 
L 520.714169 835.952184 
L 510.864213 835.952184 
z
" style="fill:#4c72b0;fill-opacity:0.75;stroke:#ffffff;stroke-linejoin:miter;stroke-width:0.984996;"/>
   </g>
   <g id="patch_45">
    <path clip-path="url(#pa6bd74093c)" d="M 520.714169 837.335625 
L 530.564125 837.335625 
L 530.564125 836.413331 
L 520.714169 836.413331 
z
" style="fill:#4c72b0;fill-opacity:0.75;stroke:#ffffff;stroke-linejoin:miter;stroke-width:0.984996;"/>
   </g>
   <g id="patch_46">
    <path clip-path="url(#pa6bd74093c)" d="M 530.564125 837.335625 
L 540.414081 837.335625 
L 540.414081 835.952184 
L 530.564125 835.952184 
z
" style="fill:#4c72b0;fill-opacity:0.75;stroke:#ffffff;stroke-linejoin:miter;stroke-width:0.984996;"/>
   </g>
   <g id="patch_47">
    <path clip-path="url(#pa6bd74093c)" d="M 540.414081 837.335625 
L 550.264037 837.335625 
L 550.264037 836.413331 
L 540.414081 836.413331 
z
" style="fill:#4c72b0;fill-opacity:0.75;stroke:#ffffff;stroke-linejoin:miter;stroke-width:0.984996;"/>
   </g>
   <g id="patch_48">
    <path clip-path="url(#pa6bd74093c)" d="M 550.264037 837.335625 
L 560.113993 837.335625 
L 560.113993 836.413331 
L 550.264037 836.413331 
z
" style="fill:#4c72b0;fill-opacity:0.75;stroke:#ffffff;stroke-linejoin:miter;stroke-width:0.984996;"/>
   </g>
   <g id="patch_49">
    <path clip-path="url(#pa6bd74093c)" d="M 560.113993 837.335625 
L 569.963949 837.335625 
L 569.963949 837.335625 
L 560.113993 837.335625 
z
" style="fill:#4c72b0;fill-opacity:0.75;stroke:#ffffff;stroke-linejoin:miter;stroke-width:0.984996;"/>
   </g>
   <g id="patch_50">
    <path clip-path="url(#pa6bd74093c)" d="M 569.963949 837.335625 
L 579.813904 837.335625 
L 579.813904 837.335625 
L 569.963949 837.335625 
z
" style="fill:#4c72b0;fill-opacity:0.75;stroke:#ffffff;stroke-linejoin:miter;stroke-width:0.984996;"/>
   </g>
   <g id="patch_51">
    <path clip-path="url(#pa6bd74093c)" d="M 579.813904 837.335625 
L 589.66386 837.335625 
L 589.66386 837.335625 
L 579.813904 837.335625 
z
" style="fill:#4c72b0;fill-opacity:0.75;stroke:#ffffff;stroke-linejoin:miter;stroke-width:0.984996;"/>
   </g>
   <g id="patch_52">
    <path clip-path="url(#pa6bd74093c)" d="M 589.66386 837.335625 
L 599.513816 837.335625 
L 599.513816 837.335625 
L 589.66386 837.335625 
z
" style="fill:#4c72b0;fill-opacity:0.75;stroke:#ffffff;stroke-linejoin:miter;stroke-width:0.984996;"/>
   </g>
   <g id="patch_53">
    <path clip-path="url(#pa6bd74093c)" d="M 599.513816 837.335625 
L 609.363772 837.335625 
L 609.363772 837.335625 
L 599.513816 837.335625 
z
" style="fill:#4c72b0;fill-opacity:0.75;stroke:#ffffff;stroke-linejoin:miter;stroke-width:0.984996;"/>
   </g>
   <g id="patch_54">
    <path clip-path="url(#pa6bd74093c)" d="M 609.363772 837.335625 
L 619.213728 837.335625 
L 619.213728 837.335625 
L 609.363772 837.335625 
z
" style="fill:#4c72b0;fill-opacity:0.75;stroke:#ffffff;stroke-linejoin:miter;stroke-width:0.984996;"/>
   </g>
   <g id="patch_55">
    <path clip-path="url(#pa6bd74093c)" d="M 619.213728 837.335625 
L 629.063684 837.335625 
L 629.063684 837.335625 
L 619.213728 837.335625 
z
" style="fill:#4c72b0;fill-opacity:0.75;stroke:#ffffff;stroke-linejoin:miter;stroke-width:0.984996;"/>
   </g>
   <g id="patch_56">
    <path clip-path="url(#pa6bd74093c)" d="M 629.063684 837.335625 
L 638.91364 837.335625 
L 638.91364 837.335625 
L 629.063684 837.335625 
z
" style="fill:#4c72b0;fill-opacity:0.75;stroke:#ffffff;stroke-linejoin:miter;stroke-width:0.984996;"/>
   </g>
   <g id="patch_57">
    <path clip-path="url(#pa6bd74093c)" d="M 638.91364 837.335625 
L 648.763596 837.335625 
L 648.763596 837.335625 
L 638.91364 837.335625 
z
" style="fill:#4c72b0;fill-opacity:0.75;stroke:#ffffff;stroke-linejoin:miter;stroke-width:0.984996;"/>
   </g>
   <g id="patch_58">
    <path clip-path="url(#pa6bd74093c)" d="M 648.763596 837.335625 
L 658.613551 837.335625 
L 658.613551 837.335625 
L 648.763596 837.335625 
z
" style="fill:#4c72b0;fill-opacity:0.75;stroke:#ffffff;stroke-linejoin:miter;stroke-width:0.984996;"/>
   </g>
   <g id="patch_59">
    <path clip-path="url(#pa6bd74093c)" d="M 658.613551 837.335625 
L 668.463507 837.335625 
L 668.463507 837.335625 
L 658.613551 837.335625 
z
" style="fill:#4c72b0;fill-opacity:0.75;stroke:#ffffff;stroke-linejoin:miter;stroke-width:0.984996;"/>
   </g>
   <g id="patch_60">
    <path clip-path="url(#pa6bd74093c)" d="M 668.463507 837.335625 
L 678.313463 837.335625 
L 678.313463 837.335625 
L 668.463507 837.335625 
z
" style="fill:#4c72b0;fill-opacity:0.75;stroke:#ffffff;stroke-linejoin:miter;stroke-width:0.984996;"/>
   </g>
   <g id="patch_61">
    <path clip-path="url(#pa6bd74093c)" d="M 678.313463 837.335625 
L 688.163419 837.335625 
L 688.163419 837.335625 
L 678.313463 837.335625 
z
" style="fill:#4c72b0;fill-opacity:0.75;stroke:#ffffff;stroke-linejoin:miter;stroke-width:0.984996;"/>
   </g>
   <g id="patch_62">
    <path clip-path="url(#pa6bd74093c)" d="M 688.163419 837.335625 
L 698.013375 837.335625 
L 698.013375 837.335625 
L 688.163419 837.335625 
z
" style="fill:#4c72b0;fill-opacity:0.75;stroke:#ffffff;stroke-linejoin:miter;stroke-width:0.984996;"/>
   </g>
   <g id="patch_63">
    <path clip-path="url(#pa6bd74093c)" d="M 698.013375 837.335625 
L 707.863331 837.335625 
L 707.863331 837.335625 
L 698.013375 837.335625 
z
" style="fill:#4c72b0;fill-opacity:0.75;stroke:#ffffff;stroke-linejoin:miter;stroke-width:0.984996;"/>
   </g>
   <g id="patch_64">
    <path clip-path="url(#pa6bd74093c)" d="M 707.863331 837.335625 
L 717.713287 837.335625 
L 717.713287 837.335625 
L 707.863331 837.335625 
z
" style="fill:#4c72b0;fill-opacity:0.75;stroke:#ffffff;stroke-linejoin:miter;stroke-width:0.984996;"/>
   </g>
   <g id="patch_65">
    <path clip-path="url(#pa6bd74093c)" d="M 717.713287 837.335625 
L 727.563242 837.335625 
L 727.563242 837.335625 
L 717.713287 837.335625 
z
" style="fill:#4c72b0;fill-opacity:0.75;stroke:#ffffff;stroke-linejoin:miter;stroke-width:0.984996;"/>
   </g>
   <g id="patch_66">
    <path clip-path="url(#pa6bd74093c)" d="M 727.563242 837.335625 
L 737.413198 837.335625 
L 737.413198 837.335625 
L 727.563242 837.335625 
z
" style="fill:#4c72b0;fill-opacity:0.75;stroke:#ffffff;stroke-linejoin:miter;stroke-width:0.984996;"/>
   </g>
   <g id="patch_67">
    <path clip-path="url(#pa6bd74093c)" d="M 737.413198 837.335625 
L 747.263154 837.335625 
L 747.263154 837.335625 
L 737.413198 837.335625 
z
" style="fill:#4c72b0;fill-opacity:0.75;stroke:#ffffff;stroke-linejoin:miter;stroke-width:0.984996;"/>
   </g>
   <g id="patch_68">
    <path clip-path="url(#pa6bd74093c)" d="M 747.263154 837.335625 
L 757.11311 837.335625 
L 757.11311 837.335625 
L 747.263154 837.335625 
z
" style="fill:#4c72b0;fill-opacity:0.75;stroke:#ffffff;stroke-linejoin:miter;stroke-width:0.984996;"/>
   </g>
   <g id="patch_69">
    <path clip-path="url(#pa6bd74093c)" d="M 757.11311 837.335625 
L 766.963066 837.335625 
L 766.963066 837.335625 
L 757.11311 837.335625 
z
" style="fill:#4c72b0;fill-opacity:0.75;stroke:#ffffff;stroke-linejoin:miter;stroke-width:0.984996;"/>
   </g>
   <g id="patch_70">
    <path clip-path="url(#pa6bd74093c)" d="M 766.963066 837.335625 
L 776.813022 837.335625 
L 776.813022 837.335625 
L 766.963066 837.335625 
z
" style="fill:#4c72b0;fill-opacity:0.75;stroke:#ffffff;stroke-linejoin:miter;stroke-width:0.984996;"/>
   </g>
   <g id="patch_71">
    <path clip-path="url(#pa6bd74093c)" d="M 776.813022 837.335625 
L 786.662978 837.335625 
L 786.662978 837.335625 
L 776.813022 837.335625 
z
" style="fill:#4c72b0;fill-opacity:0.75;stroke:#ffffff;stroke-linejoin:miter;stroke-width:0.984996;"/>
   </g>
   <g id="patch_72">
    <path clip-path="url(#pa6bd74093c)" d="M 786.662978 837.335625 
L 796.512934 837.335625 
L 796.512934 837.335625 
L 786.662978 837.335625 
z
" style="fill:#4c72b0;fill-opacity:0.75;stroke:#ffffff;stroke-linejoin:miter;stroke-width:0.984996;"/>
   </g>
   <g id="patch_73">
    <path clip-path="url(#pa6bd74093c)" d="M 796.512934 837.335625 
L 806.362889 837.335625 
L 806.362889 837.335625 
L 796.512934 837.335625 
z
" style="fill:#4c72b0;fill-opacity:0.75;stroke:#ffffff;stroke-linejoin:miter;stroke-width:0.984996;"/>
   </g>
   <g id="patch_74">
    <path clip-path="url(#pa6bd74093c)" d="M 806.362889 837.335625 
L 816.212845 837.335625 
L 816.212845 837.335625 
L 806.362889 837.335625 
z
" style="fill:#4c72b0;fill-opacity:0.75;stroke:#ffffff;stroke-linejoin:miter;stroke-width:0.984996;"/>
   </g>
   <g id="patch_75">
    <path clip-path="url(#pa6bd74093c)" d="M 816.212845 837.335625 
L 826.062801 837.335625 
L 826.062801 837.335625 
L 816.212845 837.335625 
z
" style="fill:#4c72b0;fill-opacity:0.75;stroke:#ffffff;stroke-linejoin:miter;stroke-width:0.984996;"/>
   </g>
   <g id="patch_76">
    <path clip-path="url(#pa6bd74093c)" d="M 826.062801 837.335625 
L 835.912757 837.335625 
L 835.912757 836.874478 
L 826.062801 836.874478 
z
" style="fill:#4c72b0;fill-opacity:0.75;stroke:#ffffff;stroke-linejoin:miter;stroke-width:0.984996;"/>
   </g>
   <g id="patch_77">
    <path clip-path="url(#pa6bd74093c)" d="M 835.912757 837.335625 
L 845.762713 837.335625 
L 845.762713 837.335625 
L 835.912757 837.335625 
z
" style="fill:#4c72b0;fill-opacity:0.75;stroke:#ffffff;stroke-linejoin:miter;stroke-width:0.984996;"/>
   </g>
   <g id="patch_78">
    <path clip-path="url(#pa6bd74093c)" d="M 845.762713 837.335625 
L 855.612669 837.335625 
L 855.612669 837.335625 
L 845.762713 837.335625 
z
" style="fill:#4c72b0;fill-opacity:0.75;stroke:#ffffff;stroke-linejoin:miter;stroke-width:0.984996;"/>
   </g>
   <g id="patch_79">
    <path clip-path="url(#pa6bd74093c)" d="M 855.612669 837.335625 
L 865.462625 837.335625 
L 865.462625 837.335625 
L 855.612669 837.335625 
z
" style="fill:#4c72b0;fill-opacity:0.75;stroke:#ffffff;stroke-linejoin:miter;stroke-width:0.984996;"/>
   </g>
   <g id="patch_80">
    <path clip-path="url(#pa6bd74093c)" d="M 865.462625 837.335625 
L 875.312581 837.335625 
L 875.312581 837.335625 
L 865.462625 837.335625 
z
" style="fill:#4c72b0;fill-opacity:0.75;stroke:#ffffff;stroke-linejoin:miter;stroke-width:0.984996;"/>
   </g>
   <g id="patch_81">
    <path clip-path="url(#pa6bd74093c)" d="M 875.312581 837.335625 
L 885.162536 837.335625 
L 885.162536 837.335625 
L 875.312581 837.335625 
z
" style="fill:#4c72b0;fill-opacity:0.75;stroke:#ffffff;stroke-linejoin:miter;stroke-width:0.984996;"/>
   </g>
   <g id="patch_82">
    <path clip-path="url(#pa6bd74093c)" d="M 885.162536 837.335625 
L 895.012492 837.335625 
L 895.012492 837.335625 
L 885.162536 837.335625 
z
" style="fill:#4c72b0;fill-opacity:0.75;stroke:#ffffff;stroke-linejoin:miter;stroke-width:0.984996;"/>
   </g>
   <g id="patch_83">
    <path clip-path="url(#pa6bd74093c)" d="M 895.012492 837.335625 
L 904.862448 837.335625 
L 904.862448 837.335625 
L 895.012492 837.335625 
z
" style="fill:#4c72b0;fill-opacity:0.75;stroke:#ffffff;stroke-linejoin:miter;stroke-width:0.984996;"/>
   </g>
   <g id="patch_84">
    <path clip-path="url(#pa6bd74093c)" d="M 904.862448 837.335625 
L 914.712404 837.335625 
L 914.712404 837.335625 
L 904.862448 837.335625 
z
" style="fill:#4c72b0;fill-opacity:0.75;stroke:#ffffff;stroke-linejoin:miter;stroke-width:0.984996;"/>
   </g>
   <g id="patch_85">
    <path clip-path="url(#pa6bd74093c)" d="M 914.712404 837.335625 
L 924.56236 837.335625 
L 924.56236 837.335625 
L 914.712404 837.335625 
z
" style="fill:#4c72b0;fill-opacity:0.75;stroke:#ffffff;stroke-linejoin:miter;stroke-width:0.984996;"/>
   </g>
   <g id="patch_86">
    <path clip-path="url(#pa6bd74093c)" d="M 924.56236 837.335625 
L 934.412316 837.335625 
L 934.412316 837.335625 
L 924.56236 837.335625 
z
" style="fill:#4c72b0;fill-opacity:0.75;stroke:#ffffff;stroke-linejoin:miter;stroke-width:0.984996;"/>
   </g>
   <g id="patch_87">
    <path clip-path="url(#pa6bd74093c)" d="M 934.412316 837.335625 
L 944.262272 837.335625 
L 944.262272 837.335625 
L 934.412316 837.335625 
z
" style="fill:#4c72b0;fill-opacity:0.75;stroke:#ffffff;stroke-linejoin:miter;stroke-width:0.984996;"/>
   </g>
   <g id="patch_88">
    <path clip-path="url(#pa6bd74093c)" d="M 944.262272 837.335625 
L 954.112227 837.335625 
L 954.112227 837.335625 
L 944.262272 837.335625 
z
" style="fill:#4c72b0;fill-opacity:0.75;stroke:#ffffff;stroke-linejoin:miter;stroke-width:0.984996;"/>
   </g>
   <g id="patch_89">
    <path clip-path="url(#pa6bd74093c)" d="M 954.112227 837.335625 
L 963.962183 837.335625 
L 963.962183 837.335625 
L 954.112227 837.335625 
z
" style="fill:#4c72b0;fill-opacity:0.75;stroke:#ffffff;stroke-linejoin:miter;stroke-width:0.984996;"/>
   </g>
   <g id="patch_90">
    <path clip-path="url(#pa6bd74093c)" d="M 963.962183 837.335625 
L 973.812139 837.335625 
L 973.812139 837.335625 
L 963.962183 837.335625 
z
" style="fill:#4c72b0;fill-opacity:0.75;stroke:#ffffff;stroke-linejoin:miter;stroke-width:0.984996;"/>
   </g>
   <g id="patch_91">
    <path clip-path="url(#pa6bd74093c)" d="M 973.812139 837.335625 
L 983.662095 837.335625 
L 983.662095 837.335625 
L 973.812139 837.335625 
z
" style="fill:#4c72b0;fill-opacity:0.75;stroke:#ffffff;stroke-linejoin:miter;stroke-width:0.984996;"/>
   </g>
   <g id="patch_92">
    <path clip-path="url(#pa6bd74093c)" d="M 983.662095 837.335625 
L 993.512051 837.335625 
L 993.512051 837.335625 
L 983.662095 837.335625 
z
" style="fill:#4c72b0;fill-opacity:0.75;stroke:#ffffff;stroke-linejoin:miter;stroke-width:0.984996;"/>
   </g>
   <g id="patch_93">
    <path clip-path="url(#pa6bd74093c)" d="M 993.512051 837.335625 
L 1003.362007 837.335625 
L 1003.362007 837.335625 
L 993.512051 837.335625 
z
" style="fill:#4c72b0;fill-opacity:0.75;stroke:#ffffff;stroke-linejoin:miter;stroke-width:0.984996;"/>
   </g>
   <g id="patch_94">
    <path clip-path="url(#pa6bd74093c)" d="M 1003.362007 837.335625 
L 1013.211963 837.335625 
L 1013.211963 837.335625 
L 1003.362007 837.335625 
z
" style="fill:#4c72b0;fill-opacity:0.75;stroke:#ffffff;stroke-linejoin:miter;stroke-width:0.984996;"/>
   </g>
   <g id="patch_95">
    <path clip-path="url(#pa6bd74093c)" d="M 1013.211963 837.335625 
L 1023.061919 837.335625 
L 1023.061919 837.335625 
L 1013.211963 837.335625 
z
" style="fill:#4c72b0;fill-opacity:0.75;stroke:#ffffff;stroke-linejoin:miter;stroke-width:0.984996;"/>
   </g>
   <g id="patch_96">
    <path clip-path="url(#pa6bd74093c)" d="M 1023.061919 837.335625 
L 1032.911874 837.335625 
L 1032.911874 837.335625 
L 1023.061919 837.335625 
z
" style="fill:#4c72b0;fill-opacity:0.75;stroke:#ffffff;stroke-linejoin:miter;stroke-width:0.984996;"/>
   </g>
   <g id="patch_97">
    <path clip-path="url(#pa6bd74093c)" d="M 1032.911874 837.335625 
L 1042.76183 837.335625 
L 1042.76183 837.335625 
L 1032.911874 837.335625 
z
" style="fill:#4c72b0;fill-opacity:0.75;stroke:#ffffff;stroke-linejoin:miter;stroke-width:0.984996;"/>
   </g>
   <g id="patch_98">
    <path clip-path="url(#pa6bd74093c)" d="M 1042.76183 837.335625 
L 1052.611786 837.335625 
L 1052.611786 837.335625 
L 1042.76183 837.335625 
z
" style="fill:#4c72b0;fill-opacity:0.75;stroke:#ffffff;stroke-linejoin:miter;stroke-width:0.984996;"/>
   </g>
   <g id="patch_99">
    <path clip-path="url(#pa6bd74093c)" d="M 1052.611786 837.335625 
L 1062.461742 837.335625 
L 1062.461742 837.335625 
L 1052.611786 837.335625 
z
" style="fill:#4c72b0;fill-opacity:0.75;stroke:#ffffff;stroke-linejoin:miter;stroke-width:0.984996;"/>
   </g>
   <g id="patch_100">
    <path clip-path="url(#pa6bd74093c)" d="M 1062.461742 837.335625 
L 1072.311698 837.335625 
L 1072.311698 837.335625 
L 1062.461742 837.335625 
z
" style="fill:#4c72b0;fill-opacity:0.75;stroke:#ffffff;stroke-linejoin:miter;stroke-width:0.984996;"/>
   </g>
   <g id="patch_101">
    <path clip-path="url(#pa6bd74093c)" d="M 1072.311698 837.335625 
L 1082.161654 837.335625 
L 1082.161654 837.335625 
L 1072.311698 837.335625 
z
" style="fill:#4c72b0;fill-opacity:0.75;stroke:#ffffff;stroke-linejoin:miter;stroke-width:0.984996;"/>
   </g>
   <g id="patch_102">
    <path clip-path="url(#pa6bd74093c)" d="M 1082.161654 837.335625 
L 1092.01161 837.335625 
L 1092.01161 837.335625 
L 1082.161654 837.335625 
z
" style="fill:#4c72b0;fill-opacity:0.75;stroke:#ffffff;stroke-linejoin:miter;stroke-width:0.984996;"/>
   </g>
   <g id="patch_103">
    <path clip-path="url(#pa6bd74093c)" d="M 1092.01161 837.335625 
L 1101.861566 837.335625 
L 1101.861566 837.335625 
L 1092.01161 837.335625 
z
" style="fill:#4c72b0;fill-opacity:0.75;stroke:#ffffff;stroke-linejoin:miter;stroke-width:0.984996;"/>
   </g>
   <g id="patch_104">
    <path clip-path="url(#pa6bd74093c)" d="M 1101.861566 837.335625 
L 1111.711521 837.335625 
L 1111.711521 837.335625 
L 1101.861566 837.335625 
z
" style="fill:#4c72b0;fill-opacity:0.75;stroke:#ffffff;stroke-linejoin:miter;stroke-width:0.984996;"/>
   </g>
   <g id="patch_105">
    <path clip-path="url(#pa6bd74093c)" d="M 1111.711521 837.335625 
L 1121.561477 837.335625 
L 1121.561477 831.801862 
L 1111.711521 831.801862 
z
" style="fill:#4c72b0;fill-opacity:0.75;stroke:#ffffff;stroke-linejoin:miter;stroke-width:0.984996;"/>
   </g>
   <g id="patch_106">
    <path d="M 56.28875 837.335625 
L 56.28875 21.935625 
" style="fill:none;stroke:#cccccc;stroke-linecap:square;stroke-linejoin:miter;stroke-width:1.25;"/>
   </g>
   <g id="patch_107">
    <path d="M 56.28875 837.335625 
L 1172.28875 837.335625 
" style="fill:none;stroke:#cccccc;stroke-linecap:square;stroke-linejoin:miter;stroke-width:1.25;"/>
   </g>
   <g id="text_19">
    <!-- Data Types Collected -->
    <g style="fill:#262626;" transform="translate(557.366562 15.935625)scale(0.12 -0.12)">
     <use xlink:href="#ArialMT-68"/>
     <use x="72.216797" xlink:href="#ArialMT-97"/>
     <use x="127.832031" xlink:href="#ArialMT-116"/>
     <use x="155.615234" xlink:href="#ArialMT-97"/>
     <use x="211.230469" xlink:href="#ArialMT-32"/>
     <use x="237.263672" xlink:href="#ArialMT-84"/>
     <use x="292.847656" xlink:href="#ArialMT-121"/>
     <use x="342.847656" xlink:href="#ArialMT-112"/>
     <use x="398.462891" xlink:href="#ArialMT-101"/>
     <use x="454.078125" xlink:href="#ArialMT-115"/>
     <use x="504.078125" xlink:href="#ArialMT-32"/>
     <use x="531.861328" xlink:href="#ArialMT-67"/>
     <use x="604.078125" xlink:href="#ArialMT-111"/>
     <use x="659.693359" xlink:href="#ArialMT-108"/>
     <use x="681.910156" xlink:href="#ArialMT-108"/>
     <use x="704.126953" xlink:href="#ArialMT-101"/>
     <use x="759.742188" xlink:href="#ArialMT-99"/>
     <use x="809.742188" xlink:href="#ArialMT-116"/>
     <use x="837.525391" xlink:href="#ArialMT-101"/>
     <use x="893.140625" xlink:href="#ArialMT-100"/>
    </g>
   </g>
  </g>
 </g>
 <defs>
  <clipPath id="pa6bd74093c">
   <rect height="815.4" width="1116" x="56.28875" y="21.935625"/>
  </clipPath>
 </defs>
</svg>
