<svg width="32px" height="32px" viewBox="0 0 32 32" xmlns="http://www.w3.org/2000/svg"><g stroke="#000" stroke-width="2" fill="none" fill-rule="evenodd" stroke-linecap="round"><path d="M0,4 C2.705415e-16,6.209139 1.790861,8 4,8 L12,8 C14.209139,8 16,6.209139 16,4 C16,1.790861 14.209139,-4.05812251e-16 12,0 L6,0 L6,0" transform="rotate(-45 23.48528137 -6.89949494)"/><path d="M0,4 C2.705415e-16,6.209139 1.790861,8 4,8 L12,8 C14.209139,8 16,6.209139 16,4 C16,1.790861 14.209139,-4.05812251e-16 12,0 L6,0 L6,0" transform="rotate(135 6.51471863 12.89949494)"/></g></svg>